<svg width="21" height="21" viewBox="0 0 21 21" fill="none" xmlns="http://www.w3.org/2000/svg">
<path d="M20.5571 7.49602C19.23 3.04981 15.1416 0.00201224 10.5016 0C6.96645 0.0143044 3.67255 1.79522 1.7247 4.74538C1.5436 5.07083 1.43385 5.43111 1.40275 5.80224V2.09972H0.00292969V7.69899H5.60219V6.29917H2.43861C4.00588 3.2841 7.1038 1.37479 10.5016 1.32983C15.551 1.36416 19.636 5.44913 19.6703 10.4986C19.636 15.5481 15.551 19.6331 10.5016 19.6674C6.47205 19.6206 2.94009 16.9617 1.7807 13.1023L0.436873 13.5012C2.09517 19.0573 7.94352 22.217 13.4996 20.5587C19.0556 18.9004 22.2153 13.0521 20.5571 7.49602Z" fill="#112742"/>
</svg>
