<svg width="150" height="150" viewBox="0 0 150 150" fill="none" xmlns="http://www.w3.org/2000/svg">
<g clip-path="url(#clip0)">
<path d="M48.8373 122.083H25.584V99.0869H48.8373V122.083ZM30.5854 117.137H43.8359V104.033H30.5854V117.137Z" fill="#112742"/>
<path d="M123.859 122.083H100.607V99.0869H123.859V122.083ZM105.609 117.137H118.858V104.033H105.609V117.137V117.137Z" fill="#112742"/>
<path d="M48.3219 33.0463H25.0703V10.0497H48.3236V33.0463H48.3219ZM30.0717 28.0998H43.3222V14.9961H30.0717V28.0998Z" fill="#112742"/>
<path d="M78.3298 33.0463H55.0781V10.0497H78.3314V33.0463H78.3298ZM60.0796 28.0998H73.33V14.9961H60.0796V28.0998Z" fill="#112742"/>
<path d="M48.3219 62.7265H25.0703V39.7283H48.3236V62.7265H48.3219ZM30.0717 57.7801H43.3222V44.6764H30.0717V57.7801Z" fill="#112742"/>
<path d="M78.3298 62.7265H55.0781V39.7283H78.3314V62.7265H78.3298ZM60.0796 57.7801H73.33V44.6764H60.0796V57.7801Z" fill="#112742"/>
<path d="M48.3219 92.405H25.0703V69.4067H48.3236V92.405H48.3219ZM30.0717 87.4586H43.3222V74.3548H30.0717V87.4586Z" fill="#112742"/>
<path d="M78.3298 92.405H55.0781V69.4067H78.3314V92.405H78.3298ZM60.0796 87.4586H73.33V74.3548H60.0796V87.4586Z" fill="#112742"/>
<path d="M123.343 62.7265H100.092V39.7283H123.343V62.7265ZM105.093 57.7801H118.342V44.6764H105.093V57.7801Z" fill="#112742"/>
<path d="M123.343 92.405H100.092V69.4067H123.343V92.405ZM105.093 87.4586H118.342V74.3548H105.093V87.4586Z" fill="#112742"/>
<path d="M136.65 144.263V28.0999H91.7472V-0.833374H11.7243V144.263H2.5V149.209H55.5918H78.8451H145.874V144.263H136.65ZM131.649 33.0463V144.263H91.7472V33.0463H131.649ZM60.5933 144.263V104.033H73.8437V144.263H60.5933ZM55.5918 99.0868V144.263H16.7257V4.11304H86.7457V144.263H78.8451V99.0868H55.5918Z" fill="#112742"/>
</g>
<defs>
<clipPath id="clip0">
<rect width="150" height="150" fill="white"/>
</clipPath>
</defs>
</svg>
