<svg width="24" height="23" viewBox="0 0 24 23" fill="none" xmlns="http://www.w3.org/2000/svg">
<path d="M16.775 3.73374L20.5333 7.78648C20.6917 7.95722 20.6917 8.23579 20.5333 8.40652L11.4333 18.2194L7.56667 18.6822C7.05 18.7451 6.6125 18.2733 6.67083 17.7162L7.1 13.5466L16.2 3.73374C16.3583 3.563 16.6167 3.563 16.775 3.73374ZM23.525 2.70483L21.4917 0.512209C20.8583 -0.170736 19.8292 -0.170736 19.1917 0.512209L17.7167 2.10275C17.5583 2.27349 17.5583 2.55206 17.7167 2.7228L21.475 6.77554C21.6333 6.94628 21.8917 6.94628 22.05 6.77554L23.525 5.185C24.1583 4.49756 24.1583 3.38777 23.525 2.70483ZM16 15.5505V20.1244H2.66667V5.74663H12.2417C12.375 5.74663 12.5 5.68822 12.5958 5.58937L14.2625 3.79215C14.5792 3.45067 14.3542 2.87107 13.9083 2.87107H2C0.895833 2.87107 0 3.83708 0 5.02774V20.8433C0 22.034 0.895833 23 2 23H16.6667C17.7708 23 18.6667 22.034 18.6667 20.8433V13.7533C18.6667 13.2725 18.1292 13.0344 17.8125 13.3714L16.1458 15.1686C16.0542 15.2719 16 15.4067 16 15.5505Z" fill="#112742"/>
</svg>
