<svg width="150" height="150" viewBox="0 0 150 150" fill="none" xmlns="http://www.w3.org/2000/svg">
<path d="M60.2461 52.4799C60.0911 54.8075 59.9986 57.2975 59.9986 59.9999C59.9986 72.5223 63.7359 80.0001 69.9982 80.0001C77.8906 80.0001 79.9978 70.5699 79.9978 65C79.9978 63.6175 78.8805 62.5001 77.498 62.5001C76.1181 62.5001 74.9981 63.6175 74.9981 65C74.9981 65.0999 74.7831 75 69.9982 75C67.1008 75 64.9982 68.69 64.9982 59.9999C64.9982 30.8522 75.2278 27.5322 75.548 27.437C76.8681 27.1397 77.7154 25.8421 77.4479 24.507C77.1778 23.1544 75.8679 22.2746 74.5054 22.547C74.0053 22.6469 72.1954 23.1245 70.0155 24.9895C70.0178 24.5621 70.053 24.132 70.1681 23.7046C70.5132 22.4146 71.3405 21.3371 72.498 20.667C73.6555 20.002 75.0005 19.8221 76.2904 20.1696C77.5803 20.5147 78.6604 21.3421 79.3252 22.4996C80.705 24.8847 79.8827 27.9497 77.4953 29.3296C76.3004 30.0196 75.8928 31.5497 76.5828 32.7448C77.0454 33.5472 77.8853 33.9949 78.7501 33.9949C79.1752 33.9949 79.605 33.8874 79.9975 33.66C84.7699 30.8999 86.4099 24.7724 83.6575 20C82.3201 17.6849 80.1651 16.0325 77.5853 15.34C74.9979 14.6474 72.3079 15.0051 69.9979 16.3375C67.6829 17.6749 66.028 19.83 65.3381 22.4126C64.6906 24.8275 64.9956 27.3327 66.173 29.6176C64.0279 33.1078 62.0232 38.3051 60.9082 46.0328C57.1633 41.5503 54.9983 35.8426 54.9983 30.0002C54.9983 16.2151 66.2131 5.00013 79.9975 5.00013C93.7796 5.00013 104.997 16.2154 104.997 30.0002C104.997 43.7851 93.7796 55.0003 79.9975 55.0003C77.28 55.0003 74.6126 54.5679 72.0627 53.7177C70.7552 53.2826 69.3402 53.9852 68.9002 55.2953C68.4628 56.6052 69.1703 58.0202 70.4801 58.458C73.5401 59.4804 76.7424 60.0004 79.9972 60.0004C96.5393 60.0004 109.996 46.5405 109.996 30.0002C109.996 13.4576 96.5393 0 79.9972 0C63.4552 0 49.998 13.4576 49.998 30.0002C49.9989 38.5248 53.8262 46.8074 60.2461 52.4799Z" fill="#112742"/>
<path d="M32.4998 95.0003H52.4994C55.4143 95.0003 60.3742 98.7204 64.749 102C70.2338 106.115 75.4136 110 79.9984 110H94.998C98.793 110 100.68 111.723 100.73 111.768C101.218 112.255 101.858 112.5 102.498 112.5C103.138 112.5 103.775 112.255 104.265 111.768C105.24 110.79 105.24 109.208 104.265 108.233C103.935 107.9 100.863 105 94.998 105H79.9984C77.0811 105 72.1237 101.28 67.7489 98.0003C62.2641 93.8852 57.0816 90.0001 52.4994 90.0001H32.4998C31.12 90.0001 30 91.1175 30 92.5C30 93.8802 31.12 95.0003 32.4998 95.0003Z" fill="#112742"/>
<path d="M109.766 50.8026L134.998 76.0353V85.0005H126.033L124.998 83.9655V77.5005C124.998 76.1179 123.881 75.0005 122.498 75.0005H119.998V72.5006C119.998 71.1181 118.881 70.0007 117.498 70.0007H111.036L109.999 68.9633V62.5007C109.999 61.1181 108.881 60.0007 107.499 60.0007H101.034L100.791 59.7582C99.8164 58.7805 98.2339 58.7805 97.2565 59.7582C96.2792 60.7358 96.2789 62.3158 97.2565 63.2931L98.2315 64.2681C98.6991 64.7357 99.3339 65.0006 99.9989 65.0006H104.999V69.9957C104.999 70.6581 105.261 71.2933 105.729 71.7632L108.229 74.2658C108.696 74.7357 109.334 75.0008 109.999 75.0008H114.999V77.5008C114.999 78.8806 116.116 80.0007 117.498 80.0007H119.998V85.0008C119.998 85.6632 120.261 86.2984 120.731 86.7683L123.23 89.2682C123.698 89.7358 124.333 90.0007 124.998 90.0007H137.498C138.88 90.0007 139.997 88.8806 139.997 87.5007V75.0005C139.997 74.3381 139.732 73.7006 139.265 73.2331L113.301 47.2679C112.323 46.2906 110.743 46.2906 109.766 47.2679C108.789 48.245 108.789 49.825 109.766 50.8026Z" fill="#112742"/>
<path d="M12.4998 133.751C12.4998 131.683 10.8173 130.001 8.7499 130.001C6.68247 130.001 5 131.683 5 133.751C5 135.818 6.68247 137.501 8.7499 137.501C10.8173 137.501 12.4998 135.818 12.4998 133.751Z" fill="#112742"/>
<path d="M17.4994 80.0002H2.49983C1.11999 80.0002 0 81.1176 0 82.5002C0 83.8801 1.11999 85.0001 2.49983 85.0001H17.4994C18.8769 85.0001 19.9993 86.1201 19.9993 87.5V142.5C19.9993 143.878 18.8769 145 17.4994 145H2.49983C1.11999 145 0 146.118 0 147.5C0 148.88 1.11999 150 2.49983 150H17.4994C21.6343 150 24.9992 146.635 24.9992 142.5V87.5003C24.9992 83.363 21.6343 80.0002 17.4994 80.0002Z" fill="#112742"/>
<path d="M148.657 105.001C145.899 100.223 139.762 98.588 135.152 101.258L106.38 115.263C101.905 117.501 97.3933 117.501 87.4985 117.501C77.8264 117.501 63.0568 115.058 62.9092 115.033C61.5366 114.806 60.2593 115.728 60.0317 117.088C59.8067 118.451 60.7266 119.738 62.0865 119.966C62.7091 120.071 77.4087 122.501 87.4983 122.501C97.8779 122.501 103.088 122.501 108.59 119.748L137.497 105.671C138.652 105.003 139.999 104.826 141.289 105.171C142.579 105.516 143.659 106.343 144.324 107.501C144.994 108.658 145.172 110.006 144.824 111.296C144.482 112.583 143.654 113.663 142.424 114.374L108.625 135.411C108.555 135.456 101.343 140.001 84.9984 140.001C70.8264 140.001 48.932 127.936 48.6168 127.763C48.3918 127.651 42.9694 125.001 32.4998 125.001C31.12 125.001 30 126.118 30 127.501C30 128.881 31.12 130.001 32.4998 130.001C41.5922 130.001 46.2769 132.186 46.2845 132.186C47.2296 132.711 69.5289 145.001 84.9984 145.001C103.045 145.001 111.053 139.801 111.318 139.624L144.997 118.661C147.309 117.326 148.964 115.168 149.654 112.588C150.347 110.008 149.992 107.313 148.657 105.001Z" fill="#112742"/>
</svg>
