<svg width="178" height="178" viewBox="0 0 178 178" fill="none" xmlns="http://www.w3.org/2000/svg">
<path d="M128.342 60.7597C131.058 63.4758 131.058 67.8785 128.342 70.5932L81.6965 117.24C78.9804 119.955 74.5791 119.955 71.863 117.24L49.6578 95.0337C46.9417 92.319 46.9417 87.9163 49.6578 85.2016C52.3725 82.4855 56.7753 82.4855 59.49 85.2016L76.7791 102.491L118.509 60.7597C121.225 58.045 125.627 58.045 128.342 60.7597V60.7597ZM178 89C178 138.195 138.188 178 89 178C39.8053 178 0 138.188 0 89C0 39.8053 39.8121 0 89 0C138.195 0 178 39.8121 178 89ZM164.094 89C164.094 47.4917 130.503 13.9062 89 13.9062C47.4917 13.9062 13.9062 47.4972 13.9062 89C13.9062 130.508 47.4972 164.094 89 164.094C130.508 164.094 164.094 130.503 164.094 89Z" fill="#159B12"/>
</svg>
