<svg width="22" height="23" viewBox="0 0 22 23" fill="none" xmlns="http://www.w3.org/2000/svg">
<path d="M20.4286 9.15625H13.3571V2.125C13.3571 1.26221 12.6534 0.5625 11.7857 0.5625H10.2143C9.34656 0.5625 8.64286 1.26221 8.64286 2.125V9.15625H1.57143C0.703705 9.15625 0 9.85596 0 10.7188V12.2812C0 13.144 0.703705 13.8438 1.57143 13.8438H8.64286V20.875C8.64286 21.7378 9.34656 22.4375 10.2143 22.4375H11.7857C12.6534 22.4375 13.3571 21.7378 13.3571 20.875V13.8438H20.4286C21.2963 13.8438 22 13.144 22 12.2812V10.7188C22 9.85596 21.2963 9.15625 20.4286 9.15625Z" fill="#112742"/>
</svg>
