<svg width="21" height="21" viewBox="0 0 21 21" fill="none" xmlns="http://www.w3.org/2000/svg">
<path d="M17.3906 2.625H13.7812V1.96875C13.7812 0.881426 12.8998 0 11.8125 0H9.1875C8.10018 0 7.21875 0.881426 7.21875 1.96875V2.625H3.60938C2.7033 2.625 1.96875 3.35955 1.96875 4.26562V5.57812C1.96875 5.94058 2.26254 6.23438 2.625 6.23438H18.375C18.7375 6.23438 19.0312 5.94058 19.0312 5.57812V4.26562C19.0312 3.35955 18.2967 2.625 17.3906 2.625ZM8.53125 1.96875C8.53125 1.60699 8.82574 1.3125 9.1875 1.3125H11.8125C12.1743 1.3125 12.4688 1.60699 12.4688 1.96875V2.625H8.53125V1.96875Z" fill="#112742"/>
<path d="M3.21484 7.54688C3.09774 7.54688 3.00443 7.64474 3.01 7.76172L3.55141 19.1248C3.60145 20.1764 4.46524 21 5.5177 21H15.4837C16.5361 21 17.3999 20.1764 17.45 19.1248L17.9914 7.76172C17.997 7.64474 17.9036 7.54688 17.7865 7.54688H3.21484ZM13.1257 9.1875C13.1257 8.82492 13.4194 8.53125 13.7819 8.53125C14.1445 8.53125 14.4382 8.82492 14.4382 9.1875V17.7188C14.4382 18.0813 14.1445 18.375 13.7819 18.375C13.4194 18.375 13.1257 18.0813 13.1257 17.7188V9.1875ZM9.84444 9.1875C9.84444 8.82492 10.1381 8.53125 10.5007 8.53125C10.8633 8.53125 11.1569 8.82492 11.1569 9.1875V17.7188C11.1569 18.0813 10.8633 18.375 10.5007 18.375C10.1381 18.375 9.84444 18.0813 9.84444 17.7188V9.1875ZM6.56319 9.1875C6.56319 8.82492 6.85686 8.53125 7.21944 8.53125C7.58202 8.53125 7.87569 8.82492 7.87569 9.1875V17.7188C7.87569 18.0813 7.58202 18.375 7.21944 18.375C6.85686 18.375 6.56319 18.0813 6.56319 17.7188V9.1875Z" fill="#112742"/>
</svg>
