<svg width="106" height="107" viewBox="0 0 106 107" fill="none" xmlns="http://www.w3.org/2000/svg">
<g clip-path="url(#clip0)">
<path d="M48.5821 102.385C21.7958 102.385 0 80.5903 0 53.804C0 27.0178 21.7958 5.22192 48.5821 5.22192C57.8966 5.22192 66.9588 7.87605 74.7893 12.9021C76.3266 13.8919 76.7771 15.9411 75.7872 17.4825C74.7942 19.0238 72.749 19.4694 71.2076 18.4804C64.4502 14.1385 56.6245 11.8467 48.5821 11.8467C25.4479 11.8467 6.62479 30.6698 6.62479 53.804C6.62479 76.9374 25.4479 95.7605 48.5821 95.7605C71.7155 95.7605 90.5386 76.9374 90.5386 53.804C90.5386 52.4212 90.4723 51.052 90.3445 49.7056C90.1682 47.8812 91.5017 46.2646 93.3213 46.0883C95.1497 45.9201 96.7614 47.2455 96.9385 49.0651C97.0882 50.6242 97.1634 52.2052 97.1634 53.804C97.1634 80.5903 75.3683 102.385 48.5821 102.385Z" fill="#159B12"/>
<path d="M54.1031 64.8451C53.2556 64.8451 52.4073 64.5225 51.7628 63.8739L31.8884 43.9995C30.5945 42.7048 30.5945 40.6071 31.8884 39.3132C33.1823 38.0193 35.28 38.0193 36.574 39.3132L54.108 56.8472L100.344 10.6103C101.639 9.31642 103.737 9.31642 105.03 10.6103C106.324 11.9042 106.324 14.002 105.03 15.2959L56.4483 63.878C55.799 64.5225 54.9514 64.8451 54.1031 64.8451Z" fill="#159B12"/>
</g>
<defs>
<clipPath id="clip0">
<rect width="106" height="106" fill="white" transform="translate(0 0.871094)"/>
</clipPath>
</defs>
</svg>
