<svg width="19" height="23" viewBox="0 0 19 23" fill="none" xmlns="http://www.w3.org/2000/svg">
<path d="M8.50028 2.54655C8.36835 2.54655 8.2328 2.55066 8.10103 2.55461C7.98651 2.55641 7.87577 2.51398 7.79198 2.43586C7.70934 2.35724 7.66202 2.24868 7.66037 2.13454V0L0 5.47763L7.66037 10.5896V7.78503C7.66037 7.5528 7.84833 7.36464 8.08033 7.36464C8.11154 7.36464 8.14243 7.36793 8.17283 7.37467C11.5955 8.14819 14.38 12.0173 14.38 16C14.3775 18.9123 12.7946 21.5934 10.2471 23C15.3418 22.0697 19.033 17.6105 18.9998 12.4265C18.9998 6.70148 14.5842 2.54655 8.50028 2.54655Z" fill="#112742"/>
</svg>
