<svg width="149" height="149" viewBox="0 0 149 149" fill="none" xmlns="http://www.w3.org/2000/svg">
<path d="M74.4999 0C33.4214 0 0 33.4214 0 74.4999C0 115.578 33.4214 149 74.4999 149C115.578 149 149 115.578 149 74.4999C149 33.4214 115.579 0 74.4999 0ZM74.4999 142.522C36.9907 142.522 6.47816 112.009 6.47816 74.4999C6.47816 36.9907 36.9907 6.47816 74.4999 6.47816C112.009 6.47816 142.522 36.9907 142.522 74.4999C142.522 112.009 112.009 142.522 74.4999 142.522Z" fill="#112742"/>
<path d="M74.4994 71.261C51.2812 71.261 32.3906 90.1516 32.3906 113.37C32.3906 115.158 33.8419 116.609 35.6299 116.609C37.4179 116.609 38.8691 115.157 38.8691 113.369C38.8691 93.7209 54.8508 77.7391 74.4994 77.7391C94.1479 77.7391 110.13 93.7209 110.13 113.369C110.13 115.157 111.581 116.609 113.369 116.609C115.157 116.609 116.608 115.157 116.608 113.369C116.608 90.1516 97.7175 71.261 74.4994 71.261Z" fill="#112742"/>
<path d="M74.5002 19.4348C61.9972 19.4348 51.8262 29.6056 51.8262 42.1088C51.8262 54.6121 61.9969 64.7828 74.5002 64.7828C87.0034 64.7828 97.1741 54.6118 97.1741 42.1088C97.1741 29.6059 87.0034 19.4348 74.5002 19.4348ZM74.5002 58.3044C65.5732 58.3044 58.3046 51.0358 58.3046 42.1088C58.3046 33.1819 65.5732 25.9133 74.5002 25.9133C83.4271 25.9133 90.6957 33.1819 90.6957 42.1088C90.6957 51.0358 83.4274 58.3044 74.5002 58.3044Z" fill="#112742"/>
</svg>
