<svg height="582pt" viewBox="-65 -18 582 582.66702" width="582pt" xmlns="http://www.w3.org/2000/svg"><path d="m199.210938 60.480469c-3.136719 0-6.359376.097656-9.492188.191406-2.722656.042969-5.355469-.964844-7.347656-2.820313-1.964844-1.867187-3.089844-4.445312-3.128906-7.15625v-50.695312l-182.125 130.09375 182.125 121.410156v-66.609375c0-5.515625 4.46875-9.984375 9.984374-9.984375.742188 0 1.476563.078125 2.199219.238282 81.375 18.371093 147.574219 110.261718 147.574219 204.851562-.058594 69.167969-37.691406 132.84375-98.257812 166.25 121.125-22.09375 208.882812-128 208.09375-251.121094 0-135.96875-104.980469-234.648437-249.625-234.648437zm0 0"/></svg>