<?xml version="1.0" standalone="no"?>
<!DOCTYPE svg PUBLIC "-//W3C//DTD SVG 20010904//EN"
 "http://www.w3.org/TR/2001/REC-SVG-20010904/DTD/svg10.dtd">
<svg version="1.0" xmlns="http://www.w3.org/2000/svg"
 width="141.000000pt" height="110.000000pt" viewBox="0 0 141.000000 110.000000"
 preserveAspectRatio="xMidYMid meet">

<g transform="translate(0.000000,110.000000) scale(0.100000,-0.100000)"
fill="#000000" stroke="none">
<path d="M720 934 c0 -69 -2 -75 -17 -69 -75 30 -183 68 -206 72 -15 3 -51 -4
-80 -15 -28 -11 -73 -28 -100 -38 l-47 -17 0 -388 0 -389 86 0 c48 0 83 4 80
9 -3 5 -3 30 0 55 l7 46 43 0 43 0 6 -44 c4 -25 4 -49 0 -55 -4 -8 79 -11 279
-11 l286 0 0 460 0 460 -190 0 -190 0 0 -76z m130 -84 c0 -29 -1 -30 -50 -30
-49 0 -50 1 -50 30 0 29 1 30 50 30 49 0 50 -1 50 -30z m225 0 c0 -23 -3 -25
-50 -25 -47 0 -50 1 -53 28 -3 28 -3 28 50 25 49 -3 53 -5 53 -28z m-671 -56
c9 -3 16 -17 16 -31 0 -23 -2 -24 -57 -21 -47 2 -58 6 -61 22 -2 10 2 22 10
27 15 10 69 12 92 3z m260 0 c9 -3 16 -17 16 -30 0 -23 -3 -24 -60 -24 -56 0
-60 1 -60 23 0 13 3 27 7 30 8 9 76 9 97 1z m186 -64 c0 -29 -1 -30 -50 -30
-49 0 -50 1 -50 30 0 29 1 30 50 30 49 0 50 -1 50 -30z m225 0 c0 -23 -4 -25
-52 -28 l-53 -3 0 31 0 31 53 -3 c48 -3 52 -5 52 -28z m-657 -67 c3 -22 0 -23
-57 -23 -52 0 -61 3 -61 18 0 29 10 33 65 30 43 -3 50 -6 53 -25z m257 -3 c0
-23 -4 -25 -57 -28 l-58 -3 0 31 0 31 58 -3 c53 -3 57 -5 57 -28z m175 -50 c0
-29 -1 -30 -50 -30 -49 0 -50 1 -50 30 0 29 1 30 50 30 49 0 50 -1 50 -30z
m225 0 c0 -23 -4 -25 -52 -28 l-53 -3 0 31 0 31 53 -3 c48 -3 52 -5 52 -28z
m-655 -54 c0 -26 -16 -36 -60 -36 -44 0 -60 10 -60 36 0 23 3 24 60 24 57 0
60 -1 60 -24z m260 -1 c0 -28 -26 -39 -81 -33 -29 2 -34 7 -37 31 -3 27 -3 27
57 27 58 0 61 -1 61 -25z m168 -62 l3 -33 -50 0 c-49 0 -51 1 -51 28 0 38 7
43 55 40 37 -3 40 -5 43 -35z m228 11 c9 -35 -6 -46 -57 -42 -33 2 -45 8 -47
21 -7 36 6 47 52 47 41 0 46 -3 52 -26z m-658 -56 c3 -28 3 -28 -53 -28 -58 0
-74 12 -61 46 4 11 18 14 58 12 49 -3 53 -5 56 -30z m260 0 c3 -28 3 -28 -57
-28 l-61 0 0 30 0 31 58 -3 c54 -3 57 -4 60 -30z m167 -73 c0 -29 -2 -30 -45
-30 -35 0 -45 4 -48 18 -7 37 6 48 50 45 40 -3 43 -5 43 -33z m226 19 c22 -27
-1 -49 -52 -49 -45 0 -59 15 -45 51 8 20 80 19 97 -2z m-653 -51 c-3 -27 -5
-28 -58 -28 -53 0 -55 1 -58 28 -3 27 -3 27 58 27 61 0 61 0 58 -27z m262 8
c0 -29 -25 -43 -72 -39 -39 3 -43 6 -46 31 -3 27 -3 27 57 27 53 0 61 -2 61
-19z m168 -93 c-3 -32 -5 -33 -48 -33 -35 0 -45 4 -48 18 -7 36 6 47 53 47 46
0 46 0 43 -32z m227 -3 c0 -29 -1 -30 -50 -30 -40 0 -50 4 -53 18 -7 38 5 48
55 45 46 -3 48 -4 48 -33z m-657 -17 c3 -28 3 -28 -57 -28 -57 0 -61 1 -61 23
0 34 8 38 65 35 46 -3 50 -5 53 -30z m260 0 c3 -28 3 -28 -57 -28 l-61 0 0 30
0 31 58 -3 c54 -3 57 -4 60 -30z m270 -85 l3 -53 -40 0 -41 0 0 56 0 55 38 -3
37 -3 3 -52z"/>
</g>
</svg>
