<svg width="106" height="106" viewBox="0 0 106 106" fill="none" xmlns="http://www.w3.org/2000/svg">
<g clip-path="url(#clip0)">
<path d="M48.5821 101.514C21.7958 101.514 0 79.7192 0 52.9329C0 26.1467 21.7958 4.35083 48.5821 4.35083C57.8966 4.35083 66.9588 7.00495 74.7893 12.031C76.3266 13.0208 76.7771 15.07 75.7872 16.6114C74.7942 18.1528 72.749 18.5983 71.2076 17.6093C64.4502 13.2675 56.6245 10.9756 48.5821 10.9756C25.4479 10.9756 6.62479 29.7987 6.62479 52.9329C6.62479 76.0663 25.4479 94.8894 48.5821 94.8894C71.7155 94.8894 90.5386 76.0663 90.5386 52.9329C90.5386 51.5501 90.4723 50.1809 90.3445 48.8345C90.1682 47.0101 91.5017 45.3935 93.3213 45.2172C95.1497 45.049 96.7614 46.3744 96.9385 48.194C97.0882 49.7531 97.1634 51.3341 97.1634 52.9329C97.1634 79.7192 75.3683 101.514 48.5821 101.514Z" fill="#112742"/>
<path d="M54.1031 63.9741C53.2556 63.9741 52.4073 63.6514 51.7628 63.0028L31.8884 43.1284C30.5945 41.8337 30.5945 39.736 31.8884 38.4421C33.1823 37.1482 35.28 37.1482 36.574 38.4421L54.108 55.9761L100.344 9.73923C101.639 8.44532 103.737 8.44532 105.03 9.73923C106.324 11.0331 106.324 13.1309 105.03 14.4248L56.4483 63.0069C55.799 63.6514 54.9514 63.9741 54.1031 63.9741Z" fill="#112742"/>
</g>
<defs>
<clipPath id="clip0">
<rect width="106" height="106" fill="white"/>
</clipPath>
</defs>
</svg>
