<svg width="15" height="15" viewBox="0 0 15 15" fill="none" xmlns="http://www.w3.org/2000/svg">
<path d="M8.87425 7.50011L14.715 1.65911C15.0951 1.27918 15.0951 0.664882 14.715 0.28495C14.335 -0.0949832 13.7207 -0.0949832 13.3408 0.28495L7.49993 6.12595L1.65922 0.28495C1.27911 -0.0949832 0.665004 -0.0949832 0.285078 0.28495C-0.0950259 0.664882 -0.0950259 1.27918 0.285078 1.65911L6.12579 7.50011L0.285078 13.3411C-0.0950259 13.721 -0.0950259 14.3353 0.285078 14.7153C0.474418 14.9048 0.723372 15 0.972147 15C1.22092 15 1.4697 14.9048 1.65922 14.7153L7.49993 8.87428L13.3408 14.7153C13.5303 14.9048 13.7791 15 14.0279 15C14.2767 15 14.5254 14.9048 14.715 14.7153C15.0951 14.3353 15.0951 13.721 14.715 13.3411L8.87425 7.50011Z" fill="#112742"/>
</svg>
