<?xml version="1.0" standalone="no"?>
<!DOCTYPE svg PUBLIC "-//W3C//DTD SVG 20010904//EN"
 "http://www.w3.org/TR/2001/REC-SVG-20010904/DTD/svg10.dtd">
<svg version="1.0" xmlns="http://www.w3.org/2000/svg"
 width="512.000000pt" height="512.000000pt" viewBox="0 0 512.000000 512.000000"
 preserveAspectRatio="xMidYMid meet">

<g transform="translate(0.000000,512.000000) scale(0.100000,-0.100000)"
fill="#000000" stroke="none">
<path d="M2504 5101 c-17 -11 -36 -34 -43 -52 -8 -23 -11 -654 -11 -2358 l0
-2326 -883 883 c-875 875 -883 882 -922 882 -72 0 -122 -65 -104 -135 6 -21
290 -311 991 -1012 l983 -983 45 0 45 0 986 988 c672 672 988 995 991 1012 12
70 -38 130 -108 130 -38 0 -58 -20 -921 -882 l-883 -883 0 2320 c0 1598 -3
2332 -11 2358 -7 26 -21 44 -42 57 -40 25 -73 25 -113 1z"/>
</g>
</svg>
