<svg width="21" height="21" viewBox="0 0 21 21" fill="none" xmlns="http://www.w3.org/2000/svg">
<g clip-path="url(#clip0)">
<path d="M19.1193 10.0637L15.85 6.79456C15.6089 6.55349 15.2189 6.55317 14.9778 6.79263C14.7361 7.03225 14.7338 7.42321 14.9723 7.6659L17.1538 9.88478H8.37185C8.03068 9.88478 7.75391 10.1587 7.75391 10.5C7.75391 10.8413 8.0307 11.1153 8.37185 11.1153H17.1905L14.9758 13.3312C14.7348 13.5725 14.7348 13.9646 14.9758 14.2059C15.0965 14.3265 15.2549 14.3873 15.4129 14.3873C15.5709 14.3873 15.7293 14.3272 15.85 14.2065L19.1193 10.9374C19.2351 10.8215 19.3002 10.6644 19.3002 10.5005C19.3002 10.3368 19.2352 10.1796 19.1193 10.0637Z" fill="#112742"/>
<path d="M14.334 16.151C13.9928 16.151 13.7188 16.4276 13.7188 16.7689V19.7695H2.93164V1.23047H13.7188V4.23232C13.7188 4.57363 13.9928 4.85026 14.334 4.85026C14.6751 4.85026 14.9492 4.57363 14.9492 4.23232V0.613471C14.9492 0.272139 14.6685 0 14.3273 0H2.31856C1.97741 0 1.70117 0.272139 1.70117 0.613471V20.3878C1.70117 20.7291 1.97741 21 2.31858 21H14.3274C14.6685 21 14.9492 20.7291 14.9492 20.3878V16.7689C14.9492 16.4276 14.6751 16.151 14.334 16.151Z" fill="#112742"/>
</g>
<defs>
<clipPath id="clip0">
<rect width="21" height="21" fill="white"/>
</clipPath>
</defs>
</svg>
