<svg width="170" height="107" viewBox="0 0 170 107" fill="none" xmlns="http://www.w3.org/2000/svg">
<path d="M47.8902 71.9252V75.4969C46.91 75.7765 45.9915 76.2009 45.1622 76.7504L42.3401 74.5069C41.1895 73.5932 39.5163 73.7867 38.601 74.9393C37.689 76.0919 37.8805 77.7664 39.0311 78.685L41.7023 80.8082C41.1278 82.0535 40.7967 83.4337 40.7967 84.892C40.7967 86.0381 41.0045 87.1338 41.368 88.1532L38.5377 90.5153C37.4099 91.4518 37.2541 93.1311 38.1937 94.2643C38.7211 94.9032 39.4774 95.2283 40.2401 95.2283C40.8389 95.2283 41.4443 95.0251 41.9409 94.6122L44.4595 92.515C45.4608 93.3181 46.6244 93.9229 47.8918 94.2886V97.8636C47.8918 99.3333 49.083 100.53 50.5517 100.53C52.0204 100.53 53.2115 99.3381 53.2115 97.8636V94.2854C54.1917 94.0074 55.1103 93.5798 55.9412 93.032L58.7617 95.2803C59.2534 95.6673 59.836 95.8558 60.417 95.8558C61.1992 95.8558 61.9765 95.5112 62.5023 94.8495C63.4144 93.6969 63.218 92.0208 62.0674 91.1039L59.3978 88.9807C59.9723 87.7321 60.3018 86.3551 60.3018 84.8936C60.3018 83.4808 59.9967 82.1478 59.4562 80.9301L62.1859 78.659C63.3138 77.7193 63.4695 76.0367 62.5315 74.9035C61.5903 73.7737 59.9139 73.6176 58.7811 74.5605L56.0499 76.83C55.193 76.2431 54.2355 75.7912 53.2083 75.5018V71.9301C53.2083 71.0197 52.7539 70.2215 52.0626 69.7402C51.9684 69.7402 51.8775 69.7581 51.785 69.7581C50.9395 69.7565 50.107 69.6915 49.2826 69.5939C48.4582 70.0443 47.8902 70.9124 47.8902 71.9252ZM50.5501 80.4521C52.9957 80.4521 54.9837 82.4453 54.9837 84.892C54.9837 85.8723 54.6575 86.7664 54.1219 87.4996C53.9856 87.6118 53.8607 87.7386 53.7487 87.8849C53.7 87.9451 53.6659 88.015 53.6221 88.0816C52.8253 88.8506 51.7445 89.3318 50.5501 89.3318C49.1755 89.3334 47.9584 88.688 47.1437 87.698C47.048 87.4915 46.936 87.2899 46.7818 87.1046C46.7477 87.0672 46.7055 87.0347 46.6715 86.9973C46.329 86.3681 46.1181 85.6609 46.1181 84.892C46.1181 83.8889 46.467 82.9671 47.0317 82.2209C47.1437 82.1201 47.2573 82.0193 47.3531 81.899C47.4034 81.8372 47.4374 81.7673 47.4813 81.7007C48.2781 80.9317 49.3573 80.4521 50.5501 80.4521ZM90.6474 73.3981C90.0729 72.7121 89.0586 72.6178 88.3738 73.1884L86.7168 74.5703C86.1975 74.211 85.6133 73.9379 84.9901 73.7607V71.5903C84.9901 70.6962 84.2712 69.9711 83.377 69.9711C82.4861 69.9711 81.7639 70.6962 81.7639 71.5903V73.7607C81.1683 73.9297 80.6133 74.1898 80.107 74.5231L78.3916 73.1608C77.6889 72.6048 76.6747 72.7234 76.1229 73.4209C75.5679 74.1232 75.6847 75.1393 76.3825 75.6936L78.0054 76.9828C77.6532 77.7388 77.4569 78.5744 77.4569 79.4588C77.4569 80.1546 77.5802 80.8212 77.8025 81.4438L76.0807 82.8761C75.3942 83.4483 75.3033 84.466 75.873 85.1472C76.1894 85.5341 76.6503 85.7325 77.1177 85.7325C77.4828 85.7325 77.8464 85.6105 78.1514 85.3586L79.6785 84.0889C80.2839 84.5782 80.9947 84.9424 81.7607 85.1651V87.3371C81.7607 88.2296 82.4812 88.9563 83.3754 88.9563C84.268 88.9563 84.9885 88.2296 84.9885 87.3371V85.1651C85.5841 84.9944 86.1423 84.7343 86.6454 84.3994L88.364 85.765C88.6626 86.0007 89.0099 86.1145 89.3621 86.1145C89.8408 86.1145 90.3098 85.9048 90.6295 85.5049C91.1845 84.7993 91.0693 83.78 90.3666 83.2337L88.747 81.9429C89.0975 81.1837 89.2955 80.3497 89.2955 79.4621C89.2955 78.6069 89.1121 77.7941 88.786 77.0576L90.4413 75.6774C91.1245 75.1035 91.2154 74.0858 90.6474 73.3981ZM85.5386 81.0471C85.4559 81.1138 85.3796 81.1935 85.3098 81.2796C85.2806 81.317 85.2595 81.3609 85.2335 81.3999C84.7483 81.8681 84.0927 82.1591 83.3705 82.1591C82.5364 82.1575 81.798 81.7657 81.3046 81.1658C81.2478 81.039 81.178 80.9203 81.0855 80.8033C81.0628 80.7773 81.0385 80.7626 81.0158 80.7366C80.8064 80.3562 80.6831 79.9254 80.6831 79.4604C80.6831 78.8492 80.8924 78.2915 81.2348 77.838C81.3046 77.7811 81.3744 77.7209 81.4312 77.6445C81.4653 77.6071 81.4815 77.5632 81.5107 77.5242C81.9976 77.0592 82.6484 76.765 83.3705 76.765C84.8538 76.765 86.0612 77.9729 86.0612 79.4604C86.0628 80.0538 85.8648 80.5984 85.5386 81.0471ZM27.973 68.0706C27.4034 67.3846 26.3842 67.2919 25.6994 67.8609L24.0409 69.2428C23.5199 68.8819 22.9357 68.6104 22.3141 68.4364V66.2644C22.3141 65.3687 21.592 64.6452 20.6994 64.6452C19.8068 64.6452 19.0847 65.3687 19.0847 66.2644V68.4364C18.4907 68.6055 17.9325 68.864 17.4278 69.2005L15.714 67.8333C15.013 67.2805 13.9987 67.396 13.4453 68.0934C12.8903 68.7973 13.0071 69.815 13.7049 70.3661L15.3278 71.6553C14.9756 72.4113 14.7776 73.2485 14.7776 74.1346C14.7776 74.832 14.9026 75.4937 15.1233 76.1163L13.4031 77.547C12.7183 78.1208 12.6257 79.1385 13.1954 79.8246C13.5134 80.2066 13.9727 80.4034 14.4385 80.4034C14.8036 80.4034 15.1688 80.2847 15.4706 80.0311L16.9993 78.7581C17.6063 79.2507 18.3138 79.6149 19.0831 79.836V82.0063C19.0831 82.9021 19.8052 83.6272 20.6978 83.6272C21.5904 83.6272 22.3125 82.9021 22.3125 82.0063V79.836C22.9081 79.6669 23.4664 79.4084 23.9694 79.0719L25.6848 80.4342C25.9818 80.6716 26.3356 80.787 26.6877 80.787C27.1632 80.787 27.6355 80.5773 27.9535 80.1741C28.5069 79.4751 28.3901 78.459 27.6923 77.9046L26.0727 76.6138C26.4216 75.8578 26.6212 75.0222 26.6212 74.1362C26.6212 73.2794 26.4346 72.4682 26.1084 71.7301L27.7637 70.3483C28.4501 69.7793 28.5426 68.7567 27.973 68.0706ZM22.8659 75.7213C22.7848 75.7895 22.7085 75.8692 22.6387 75.9586C22.6079 75.9928 22.5884 76.035 22.5624 76.0757C22.0772 76.5439 21.4216 76.8381 20.6978 76.8381C19.8636 76.8349 19.1252 76.4447 18.6303 75.8432C18.5719 75.718 18.5037 75.5977 18.4112 75.4823C18.3885 75.4547 18.3641 75.44 18.3414 75.4156C18.1353 75.0352 18.0071 74.6028 18.0071 74.1394C18.0071 73.5265 18.2181 72.9673 18.5605 72.5186C18.6303 72.4568 18.7001 72.3967 18.7569 72.3219C18.7893 72.2861 18.8088 72.2406 18.8364 72.2032C19.3216 71.735 19.9756 71.444 20.6978 71.444C22.1827 71.444 23.3901 72.6503 23.3901 74.1394C23.3901 74.7328 23.1921 75.2758 22.8659 75.7213ZM107.048 30.1588C107.048 46.7883 93.5425 60.3192 76.9408 60.3192C74.7272 60.3192 72.4845 60.0574 70.2563 59.5421C66.3176 65.7962 59.4952 69.6378 52.0658 69.7337C51.6341 69.433 51.1148 69.2574 50.5501 69.2574C50.0892 69.2574 49.6607 69.3842 49.2826 69.5907C41.1749 68.6591 34.2518 63.2601 31.3777 55.5997C28.4063 57.0564 25.1493 57.8139 21.8305 57.8139C9.79226 57.8139 0 48.006 0 35.9463C0 23.8867 9.79226 14.0771 21.8305 14.0771C23.9402 14.0771 26.0175 14.3828 28.0298 14.9827C30.9526 6.06232 39.1901 0 48.7406 0C53.3722 0 57.8934 1.48754 61.6179 4.21225C66.2576 1.45177 71.5254 0 76.9392 0C93.5425 0 107.048 13.5293 107.048 30.1588Z" fill="#112742"/>
<path d="M110.842 77.4087V80.9804C109.862 81.26 108.944 81.6843 108.114 82.2338L105.292 79.9903C104.142 79.0766 102.468 79.2701 101.553 80.4227C100.641 81.5754 100.833 83.2499 101.983 84.1684L104.654 86.2916C104.08 87.5369 103.749 88.9171 103.749 90.3754C103.749 91.5215 103.957 92.6173 104.32 93.6366L101.49 95.9988C100.362 96.9352 100.206 98.6146 101.146 99.7477C101.673 100.387 102.43 100.712 103.192 100.712C103.791 100.712 104.396 100.509 104.893 100.096L107.412 97.9984C108.413 98.8015 109.577 99.4063 110.844 99.7721V103.347C110.844 104.817 112.035 106.013 113.504 106.013C114.973 106.013 116.164 104.822 116.164 103.347V99.7688C117.144 99.4908 118.062 99.0633 118.893 98.5154L121.714 100.764C122.206 101.151 122.788 101.339 123.369 101.339C124.151 101.339 124.929 100.995 125.454 100.333C126.367 99.1803 126.17 97.5042 125.02 96.5873L122.35 94.4641C122.924 93.2155 123.254 91.8386 123.254 90.377C123.254 88.9643 122.949 87.6312 122.408 86.4135L125.138 84.1424C126.266 83.2027 126.422 81.5201 125.484 80.387C124.542 79.2571 122.866 79.101 121.733 80.0439L119.002 82.3135C118.145 81.7266 117.188 81.2746 116.16 80.9852V77.4135C116.16 76.5031 115.706 75.7049 115.015 75.2237C114.921 75.2237 114.83 75.2416 114.737 75.2416C113.892 75.2399 113.059 75.1749 112.235 75.0774C111.41 75.5277 110.842 76.3958 110.842 77.4087ZM113.502 85.9356C115.948 85.9356 117.936 87.9287 117.936 90.3754C117.936 91.3557 117.61 92.2499 117.074 92.9831C116.938 93.0953 116.813 93.2221 116.701 93.3684C116.652 93.4285 116.618 93.4984 116.574 93.5651C115.777 94.334 114.697 94.8153 113.502 94.8153C112.128 94.8169 110.911 94.1715 110.096 93.1814C110 92.9749 109.888 92.7734 109.734 92.588C109.7 92.5506 109.658 92.5181 109.624 92.4807C109.281 91.8516 109.07 91.1444 109.07 90.3754C109.07 89.3723 109.419 88.4506 109.984 87.7044C110.096 87.6036 110.209 87.5028 110.305 87.3825C110.356 87.3207 110.39 87.2508 110.433 87.1841C111.23 86.4152 112.309 85.9356 113.502 85.9356ZM153.6 78.8816C153.025 78.1955 152.011 78.1012 151.326 78.6718L149.669 80.0537C149.15 79.6944 148.565 79.4213 147.942 79.2441V77.0738C147.942 76.1796 147.223 75.4545 146.329 75.4545C145.438 75.4545 144.716 76.1796 144.716 77.0738V79.2441C144.12 79.4132 143.565 79.6733 143.059 80.0066L141.344 78.6442C140.641 78.0882 139.627 78.2069 139.075 78.9043C138.52 79.6066 138.637 80.6227 139.335 81.1771L140.958 82.4663C140.605 83.2222 140.409 84.0579 140.409 84.9422C140.409 85.6381 140.532 86.3046 140.755 86.9273L139.033 88.3595C138.346 88.9318 138.255 89.9495 138.825 90.6307C139.142 91.0176 139.602 91.2159 140.07 91.2159C140.435 91.2159 140.798 91.094 141.104 90.842L142.631 89.5723C143.236 90.0616 143.947 90.4258 144.713 90.6485V92.8205C144.713 93.713 145.433 94.4397 146.328 94.4397C147.22 94.4397 147.941 93.713 147.941 92.8205V90.6485C148.536 90.4778 149.094 90.2177 149.598 89.8828L151.316 91.2484C151.615 91.4842 151.962 91.598 152.314 91.598C152.793 91.598 153.262 91.3882 153.582 90.9883C154.137 90.2827 154.021 89.2634 153.319 88.7172L151.699 87.4264C152.05 86.6671 152.248 85.8331 152.248 84.9455C152.248 84.0904 152.064 83.2775 151.738 82.5411L153.393 81.1608C154.077 80.5869 154.168 79.5692 153.6 78.8816ZM148.491 86.5306C148.408 86.5972 148.332 86.6769 148.262 86.7631C148.233 86.8005 148.212 86.8443 148.186 86.8834C147.7 87.3516 147.045 87.6426 146.323 87.6426C145.489 87.641 144.75 87.2492 144.257 86.6493C144.2 86.5225 144.13 86.4038 144.038 86.2867C144.015 86.2607 143.991 86.2461 143.968 86.2201C143.759 85.8396 143.635 85.4088 143.635 84.9439C143.635 84.3326 143.845 83.775 144.187 83.3214C144.257 83.2645 144.327 83.2044 144.383 83.1279C144.417 83.0906 144.434 83.0467 144.463 83.0076C144.95 82.5427 145.601 82.2484 146.323 82.2484C147.806 82.2484 149.013 83.4563 149.013 84.9439C149.015 85.5373 148.817 86.0819 148.491 86.5306ZM90.9252 73.5541C90.3555 72.868 89.3364 72.7753 88.6516 73.3444L86.993 74.7262C86.4721 74.3653 85.8878 74.0938 85.2663 73.9199V71.7479C85.2663 70.8521 84.5441 70.1287 83.6516 70.1287C82.759 70.1287 82.0368 70.8521 82.0368 71.7479V73.9199C81.4429 74.0889 80.8846 74.3474 80.3799 74.6839L78.6662 73.3167C77.9651 72.764 76.9508 72.8794 76.3974 73.5768C75.8424 74.2808 75.9593 75.2985 76.6571 75.8496L78.2799 77.1388C77.9278 77.8947 77.7298 78.732 77.7298 79.618C77.7298 80.3154 77.8548 80.9771 78.0755 81.5998L76.3552 83.0304C75.6704 83.6043 75.5779 84.622 76.1475 85.308C76.4656 85.6901 76.9249 85.8868 77.3906 85.8868C77.7558 85.8868 78.1209 85.7681 78.4227 85.5145L79.9515 84.2416C80.5584 84.7342 81.266 85.0983 82.0352 85.3194V87.4898C82.0352 88.3855 82.7574 89.1106 83.6499 89.1106C84.5425 89.1106 85.2647 88.3855 85.2647 87.4898V85.3194C85.8603 85.1503 86.4185 84.8919 86.9216 84.5553L88.6369 85.9177C88.9339 86.155 89.2877 86.2705 89.6399 86.2705C90.1154 86.2705 90.5876 86.0607 90.9057 85.6576C91.4591 84.9585 91.3422 83.9424 90.6444 83.3881L89.0248 82.0972C89.3737 81.3413 89.5733 80.5057 89.5733 79.6196C89.5733 78.7629 89.3867 77.9516 89.0605 77.2136L90.7158 75.8317C91.4023 75.2627 91.4948 74.2401 90.9252 73.5541ZM85.8181 81.2047C85.7369 81.273 85.6606 81.3527 85.5909 81.4421C85.56 81.4762 85.5406 81.5185 85.5146 81.5591C85.0294 82.0273 84.3737 82.3216 83.6499 82.3216C82.8158 82.3183 82.0774 81.9282 81.5824 81.3266C81.524 81.2015 81.4559 81.0812 81.3633 80.9657C81.3406 80.9381 81.3163 80.9235 81.2936 80.8991C81.0875 80.5187 80.9593 80.0862 80.9593 79.6229C80.9593 79.01 81.1702 78.4507 81.5126 78.002C81.5824 77.9403 81.6522 77.8801 81.709 77.8053C81.7415 77.7696 81.7609 77.724 81.7885 77.6867C82.2738 77.2184 82.9278 76.9274 83.6499 76.9274C85.1348 76.9274 86.3422 78.1337 86.3422 79.6229C86.3422 80.2163 86.1443 80.7593 85.8181 81.2047ZM170 35.6422C170 52.2717 156.495 65.8026 139.893 65.8026C137.679 65.8026 135.437 65.5409 133.208 65.0255C129.27 71.2797 122.447 75.1213 115.018 75.2172C114.586 74.9164 114.067 74.7408 113.502 74.7408C113.041 74.7408 112.613 74.8676 112.235 75.0741C104.127 74.1426 97.204 68.7436 94.3299 61.0832C91.3585 62.5398 88.1014 63.2974 84.7827 63.2974C72.7444 63.2974 62.9521 53.4894 62.9521 41.4298C62.9521 29.3702 72.7444 19.5606 84.7827 19.5606C86.8924 19.5606 88.9696 19.8662 90.982 20.4661C93.9047 11.5458 102.142 5.48345 111.693 5.48345C116.324 5.48345 120.846 6.97098 124.57 9.69569C129.21 6.93522 134.478 5.48345 139.891 5.48345C156.495 5.48345 170 19.0127 170 35.6422Z" fill="#FFCC00"/>
</svg>
