<svg width="582" height="363" viewBox="0 0 582 363" fill="none" xmlns="http://www.w3.org/2000/svg">
<path d="M163.954 246.298V258.526C160.598 259.483 157.454 260.936 154.615 262.817L144.953 255.137C141.014 252.009 135.286 252.671 132.152 256.617C129.03 260.563 129.686 266.296 133.625 269.44L142.77 276.709C140.803 280.973 139.669 285.698 139.669 290.69C139.669 294.614 140.381 298.366 141.625 301.855L131.936 309.942C128.074 313.148 127.541 318.898 130.758 322.777C132.563 324.964 135.153 326.077 137.764 326.077C139.814 326.077 141.886 325.382 143.586 323.968L152.209 316.788C155.637 319.538 159.621 321.608 163.96 322.86V335.099C163.96 340.131 168.038 344.227 173.066 344.227C178.094 344.227 182.172 340.147 182.172 335.099V322.849C185.528 321.897 188.672 320.434 191.517 318.558L201.173 326.255C202.857 327.58 204.851 328.226 206.84 328.226C209.518 328.226 212.179 327.046 213.979 324.781C217.102 320.834 216.43 315.096 212.49 311.957L203.351 304.688C205.318 300.414 206.446 295.7 206.446 290.696C206.446 285.859 205.401 281.295 203.551 277.127L212.896 269.351C216.757 266.134 217.291 260.374 214.079 256.495C210.857 252.626 205.118 252.092 201.24 255.32L191.889 263.09C188.956 261.081 185.678 259.533 182.161 258.543V246.315C182.161 243.198 180.605 240.465 178.238 238.818C177.916 238.818 177.605 238.879 177.288 238.879C174.394 238.873 171.544 238.651 168.721 238.317C165.899 239.859 163.954 242.831 163.954 246.298ZM173.06 275.49C181.433 275.49 188.239 282.314 188.239 290.69C188.239 294.047 187.122 297.108 185.289 299.618C184.822 300.002 184.394 300.436 184.011 300.937C183.844 301.143 183.728 301.382 183.578 301.61C180.85 304.243 177.149 305.89 173.06 305.89C168.355 305.896 164.188 303.686 161.399 300.297C161.071 299.59 160.687 298.9 160.16 298.265C160.043 298.137 159.898 298.026 159.782 297.898C158.609 295.744 157.887 293.323 157.887 290.69C157.887 287.256 159.082 284.101 161.015 281.546C161.399 281.201 161.787 280.856 162.115 280.444C162.287 280.232 162.404 279.993 162.554 279.765C165.282 277.132 168.977 275.49 173.06 275.49ZM310.335 251.341C308.368 248.992 304.896 248.669 302.551 250.623L296.879 255.354C295.101 254.124 293.101 253.189 290.967 252.582V245.152C290.967 242.09 288.506 239.608 285.445 239.608C282.395 239.608 279.922 242.09 279.922 245.152V252.582C277.883 253.161 275.983 254.051 274.25 255.192L268.377 250.528C265.971 248.625 262.499 249.031 260.61 251.419C258.71 253.823 259.11 257.302 261.499 259.199L267.055 263.613C265.849 266.201 265.177 269.062 265.177 272.09C265.177 274.472 265.599 276.754 266.36 278.885L260.466 283.789C258.115 285.748 257.804 289.232 259.754 291.564C260.838 292.889 262.416 293.568 264.016 293.568C265.266 293.568 266.51 293.15 267.555 292.288L272.783 287.941C274.855 289.616 277.289 290.863 279.911 291.625V299.061C279.911 302.117 282.378 304.605 285.439 304.605C288.495 304.605 290.962 302.117 290.962 299.061V291.625C293.001 291.041 294.912 290.151 296.634 289.004L302.518 293.679C303.54 294.486 304.729 294.876 305.935 294.876C307.574 294.876 309.18 294.158 310.274 292.789C312.174 290.373 311.78 286.883 309.374 285.013L303.829 280.594C305.029 277.995 305.707 275.14 305.707 272.101C305.707 269.173 305.079 266.39 303.963 263.869L309.63 259.144C311.969 257.179 312.28 253.695 310.335 251.341ZM292.845 277.527C292.562 277.756 292.301 278.028 292.062 278.323C291.962 278.451 291.89 278.602 291.801 278.735C290.14 280.338 287.895 281.334 285.423 281.334C282.567 281.329 280.039 279.987 278.35 277.934C278.156 277.5 277.917 277.093 277.6 276.693C277.522 276.604 277.439 276.553 277.361 276.464C276.644 275.162 276.222 273.687 276.222 272.095C276.222 270.003 276.939 268.094 278.111 266.541C278.35 266.346 278.589 266.14 278.783 265.878C278.9 265.75 278.956 265.6 279.056 265.466C280.722 263.875 282.95 262.867 285.423 262.867C290.501 262.867 294.634 267.003 294.634 272.095C294.64 274.127 293.962 275.991 292.845 277.527ZM95.7668 233.102C93.8167 230.753 90.3276 230.436 87.983 232.384L82.3049 237.115C80.5215 235.879 78.5214 234.95 76.3935 234.354V226.918C76.3935 223.852 73.9211 221.375 70.8653 221.375C67.8096 221.375 65.3372 223.852 65.3372 226.918V234.354C63.3038 234.933 61.3926 235.818 59.6647 236.97L53.7977 232.289C51.3975 230.397 47.9251 230.792 46.0305 233.18C44.1304 235.59 44.5304 239.074 46.9195 240.961L52.4754 245.374C51.2697 247.962 50.5919 250.829 50.5919 253.862C50.5919 256.25 51.0197 258.515 51.7753 260.647L45.8861 265.544C43.5415 267.509 43.2248 270.993 45.1749 273.342C46.2639 274.65 47.8362 275.323 49.4307 275.323C50.6808 275.323 51.9309 274.917 52.9643 274.049L58.1979 269.691C60.2758 271.377 62.6982 272.624 65.3317 273.381V280.811C65.3317 283.878 67.8041 286.36 70.8598 286.36C73.9155 286.36 76.3879 283.878 76.3879 280.811V273.381C78.4269 272.802 80.3381 271.917 82.0605 270.765L87.933 275.429C88.9498 276.242 90.1609 276.637 91.3666 276.637C92.9944 276.637 94.6112 275.919 95.7002 274.539C97.5947 272.145 97.1947 268.667 94.8057 266.769L89.2609 262.35C90.4554 259.762 91.1388 256.901 91.1388 253.868C91.1388 250.934 90.4998 248.157 89.3831 245.63L95.0501 240.899C97.4003 238.951 97.7169 235.451 95.7668 233.102ZM78.2825 259.294C78.0047 259.528 77.7435 259.801 77.5046 260.107C77.3991 260.224 77.3324 260.368 77.2435 260.507C75.5823 262.11 73.3377 263.118 70.8598 263.118C68.0041 263.107 65.4761 261.771 63.7816 259.712C63.5816 259.283 63.3482 258.871 63.0315 258.476C62.9538 258.381 62.8704 258.331 62.7926 258.248C62.087 256.945 61.6481 255.465 61.6481 253.879C61.6481 251.78 62.3704 249.866 63.5427 248.33C63.7816 248.118 64.0205 247.912 64.215 247.656C64.3261 247.534 64.3927 247.378 64.4872 247.25C66.1484 245.647 68.3874 244.651 70.8598 244.651C75.9434 244.651 80.077 248.78 80.077 253.879C80.077 255.91 79.3992 257.769 78.2825 259.294ZM366.483 103.309C366.483 160.241 320.247 206.564 263.41 206.564C255.832 206.564 248.154 205.668 240.525 203.904C227.041 225.315 203.684 238.467 178.25 238.796C176.772 237.766 174.994 237.165 173.06 237.165C171.482 237.165 170.016 237.599 168.721 238.306C140.964 235.117 117.263 216.633 107.423 190.407C97.2503 195.394 86.0996 197.988 74.7378 197.988C33.5242 197.988 0 164.41 0 123.123C0 81.8363 33.5242 48.2527 74.7378 48.2527C81.9605 48.2527 89.072 49.299 95.9613 51.3528C105.967 20.8136 134.169 0.059021 166.866 0.059021C182.722 0.059021 198.201 5.15167 210.952 14.4798C226.836 5.02922 244.87 0.059021 263.405 0.059021C320.247 0.059021 366.483 46.377 366.483 103.309Z" fill="#112742"/>
<path d="M379.472 265.071V277.299C376.116 278.256 372.971 279.709 370.132 281.59L360.471 273.909C356.532 270.781 350.803 271.444 347.67 275.39C344.548 279.336 345.203 285.069 349.142 288.213L358.287 295.482C356.32 299.745 355.187 304.471 355.187 309.463C355.187 313.387 355.898 317.138 357.143 320.628L347.453 328.715C343.592 331.921 343.059 337.67 346.275 341.55C348.081 343.737 350.67 344.85 353.281 344.85C355.331 344.85 357.404 344.154 359.104 342.741L367.727 335.561C371.155 338.31 375.138 340.381 379.477 341.633V353.872C379.477 358.904 383.555 363 388.583 363C393.612 363 397.69 358.92 397.69 353.872V341.622C401.045 340.67 404.19 339.207 407.035 337.331L416.691 345.028C418.374 346.353 420.369 346.999 422.358 346.999C425.036 346.999 427.697 345.819 429.497 343.553C432.619 339.607 431.947 333.869 428.008 330.73L418.869 323.461C420.835 319.187 421.963 314.472 421.963 309.469C421.963 304.632 420.919 300.068 419.069 295.9L428.414 288.124C432.275 284.907 432.808 279.147 429.597 275.267C426.375 271.399 420.635 270.865 416.757 274.093L407.407 281.863C404.473 279.854 401.195 278.306 397.678 277.316V265.088C397.678 261.971 396.123 259.238 393.756 257.591C393.434 257.591 393.123 257.652 392.806 257.652C389.911 257.646 387.061 257.424 384.239 257.09C381.416 258.631 379.472 261.604 379.472 265.071ZM388.578 294.263C396.951 294.263 403.757 301.087 403.757 309.463C403.757 312.819 402.64 315.881 400.806 318.391C400.34 318.775 399.912 319.209 399.529 319.71C399.362 319.916 399.245 320.155 399.095 320.383C396.367 323.016 392.667 324.663 388.578 324.663C383.872 324.669 379.705 322.459 376.916 319.07C376.588 318.363 376.205 317.673 375.677 317.038C375.56 316.91 375.416 316.799 375.299 316.671C374.127 314.517 373.405 312.096 373.405 309.463C373.405 306.029 374.599 302.873 376.533 300.319C376.916 299.974 377.305 299.629 377.633 299.217C377.805 299.005 377.922 298.766 378.072 298.538C380.8 295.905 384.494 294.263 388.578 294.263ZM525.853 270.114C523.886 267.765 520.414 267.442 518.069 269.396L512.396 274.126C510.619 272.896 508.618 271.961 506.485 271.355V263.924C506.485 260.863 504.024 258.381 500.962 258.381C497.912 258.381 495.44 260.863 495.44 263.924V271.355C493.401 271.934 491.501 272.824 489.767 273.965L483.895 269.301C481.489 267.397 478.017 267.804 476.128 270.191C474.227 272.596 474.628 276.074 477.017 277.972L482.572 282.386C481.367 284.974 480.695 287.835 480.695 290.863C480.695 293.245 481.117 295.527 481.878 297.658L475.983 302.562C473.633 304.521 473.322 308.005 475.272 310.337C476.355 311.662 477.933 312.341 479.533 312.341C480.783 312.341 482.028 311.923 483.072 311.061L488.301 306.714C490.373 308.389 492.806 309.636 495.429 310.398V317.834C495.429 320.89 497.896 323.378 500.957 323.378C504.013 323.378 506.479 320.89 506.479 317.834V310.398C508.518 309.814 510.43 308.923 512.152 307.777L518.036 312.452C519.058 313.259 520.247 313.649 521.453 313.649C523.091 313.649 524.697 312.931 525.792 311.562C527.692 309.146 527.297 305.656 524.892 303.786L519.347 299.367C520.547 296.768 521.225 293.913 521.225 290.874C521.225 287.946 520.597 285.163 519.48 282.642L525.147 277.917C527.486 275.952 527.797 272.468 525.853 270.114ZM508.363 296.3C508.079 296.528 507.818 296.801 507.579 297.096C507.479 297.224 507.407 297.374 507.318 297.508C505.657 299.111 503.413 300.107 500.94 300.107C498.084 300.102 495.557 298.76 493.868 296.707C493.673 296.272 493.434 295.866 493.117 295.465C493.04 295.376 492.956 295.326 492.879 295.237C492.162 293.935 491.74 292.46 491.74 290.868C491.74 288.775 492.456 286.866 493.629 285.314C493.868 285.119 494.106 284.913 494.301 284.651C494.418 284.523 494.473 284.373 494.573 284.239C496.24 282.648 498.468 281.64 500.94 281.64C506.018 281.64 510.152 285.776 510.152 290.868C510.157 292.9 509.48 294.764 508.363 296.3ZM311.284 251.875C309.334 249.526 305.845 249.209 303.501 251.157L297.822 255.887C296.039 254.652 294.039 253.722 291.911 253.127V245.691C291.911 242.624 289.439 240.148 286.383 240.148C283.327 240.148 280.855 242.624 280.855 245.691V253.127C278.821 253.706 276.91 254.591 275.182 255.743L269.315 251.062C266.915 249.17 263.443 249.565 261.548 251.953C259.648 254.363 260.048 257.847 262.437 259.733L267.993 264.147C266.787 266.735 266.109 269.601 266.109 272.635C266.109 275.022 266.537 277.288 267.293 279.419L261.404 284.317C259.059 286.282 258.742 289.766 260.692 292.115C261.781 293.423 263.354 294.096 264.948 294.096C266.198 294.096 267.448 293.69 268.482 292.822L273.715 288.464C275.793 290.15 278.216 291.397 280.849 292.154V299.584C280.849 302.651 283.322 305.133 286.377 305.133C289.433 305.133 291.905 302.651 291.905 299.584V292.154C293.944 291.575 295.856 290.69 297.578 289.538L303.451 294.202C304.467 295.015 305.679 295.41 306.884 295.41C308.512 295.41 310.129 294.692 311.218 293.311C313.112 290.918 312.712 287.44 310.323 285.542L304.778 281.123C305.973 278.534 306.656 275.674 306.656 272.64C306.656 269.707 306.017 266.93 304.901 264.403L310.568 259.672C312.918 257.724 313.235 254.223 311.284 251.875ZM293.8 278.067C293.522 278.301 293.261 278.573 293.022 278.88C292.917 278.996 292.85 279.141 292.761 279.28C291.1 280.883 288.855 281.891 286.377 281.891C283.522 281.879 280.994 280.544 279.299 278.484C279.099 278.056 278.866 277.644 278.549 277.249C278.471 277.154 278.388 277.104 278.31 277.021C277.605 275.718 277.166 274.238 277.166 272.651C277.166 270.553 277.888 268.639 279.06 267.102C279.299 266.891 279.538 266.685 279.733 266.429C279.844 266.307 279.91 266.151 280.005 266.023C281.666 264.42 283.905 263.423 286.377 263.423C291.461 263.423 295.595 267.553 295.595 272.651C295.595 274.683 294.917 276.542 293.8 278.067ZM582.001 122.082C582.001 179.014 535.764 225.337 478.928 225.337C471.35 225.337 463.671 224.441 456.043 222.677C442.559 244.088 419.202 257.24 393.767 257.568C392.289 256.539 390.511 255.938 388.578 255.938C387 255.938 385.533 256.372 384.239 257.079C356.482 253.889 332.78 235.406 322.941 209.18C312.768 214.167 301.617 216.76 290.255 216.76C249.042 216.76 215.518 183.182 215.518 141.896C215.518 100.609 249.042 67.0255 290.255 67.0255C297.478 67.0255 304.59 68.0719 311.479 70.1256C321.485 39.5865 349.687 18.8318 382.383 18.8318C398.24 18.8318 413.718 23.9245 426.469 33.2527C442.353 23.802 460.388 18.8318 478.922 18.8318C535.764 18.8318 582.001 65.1499 582.001 122.082Z" fill="#FFCC00"/>
</svg>
