<svg width="178" height="178" viewBox="0 0 178 178" fill="none" xmlns="http://www.w3.org/2000/svg">
<path d="M151.971 26.0533C117.266 -8.6522 60.7775 -8.6522 26.072 26.0533C9.26061 42.8713 0 65.2269 0 89.0026C0 112.778 9.26061 135.134 26.072 151.945C43.4283 169.302 66.225 177.976 89.0214 177.976C111.818 177.976 134.615 169.302 151.971 151.945C186.676 117.24 186.676 60.7654 151.971 26.0533ZM142.221 142.195C112.887 171.529 65.1559 171.529 35.8222 142.195C21.6175 127.99 13.791 109.096 13.791 89.0026C13.791 68.9089 21.6175 50.015 35.8222 35.8034C65.1559 6.46961 112.887 6.47656 142.221 35.8034C171.547 65.1372 171.547 112.868 142.221 142.195Z" fill="#E62828" fill-opacity="0.92"/>
<path d="M118.734 108.062L99.2128 88.5684L118.734 69.0747C121.423 66.3856 121.423 62.0207 118.741 59.3243C116.045 56.6212 111.68 56.6282 108.984 59.3173L89.4492 78.8249L69.9142 59.3173C67.2181 56.6282 62.8532 56.6212 60.1571 59.3243C57.468 62.0204 57.468 66.3853 60.1641 69.0747L79.6855 88.5684L60.1641 108.062C57.468 110.751 57.468 115.116 60.1571 117.812C61.5019 119.164 63.2739 119.833 65.0393 119.833C66.8047 119.833 68.5698 119.157 69.9145 117.819L89.4495 98.3115L108.985 117.819C110.329 119.164 112.094 119.833 113.86 119.833C115.625 119.833 117.397 119.157 118.742 117.812C121.43 115.116 121.43 110.751 118.734 108.062Z" fill="#E62828" fill-opacity="0.92"/>
</svg>
