<svg width="106" height="106" viewBox="0 0 106 106" fill="none" xmlns="http://www.w3.org/2000/svg">
<g clip-path="url(#clip0)">
<path d="M44.829 15.2911C36.0178 18.778 30.2346 27.372 30.2314 36.7884C30.2314 40.2069 32.997 42.9959 36.4432 42.9959C39.8839 42.9959 42.655 40.2121 42.655 36.7884C42.6633 30.899 47.4034 26.1042 53.339 26.0998C59.1641 26.0998 64.0378 31.0102 64.0378 36.7781C64.0357 41.2469 61.3418 45.1672 57.1801 46.769C54.1943 47.9137 51.6683 49.8863 49.875 52.4777C46.5954 57.2121 47.1355 61.2065 47.1355 67.4115C47.1355 67.904 47.1935 68.3947 47.3074 68.8727C47.4771 69.5723 48.0984 70.0608 48.8168 70.0608C49.8301 70.0608 50.5621 69.1126 50.3284 68.1441C50.2069 67.6411 50.2394 67.9961 50.2394 61.2869C50.2476 56.1123 53.4074 51.5525 58.2939 49.6668C67.5174 46.1338 70.2313 34.2182 63.0749 27.0644C54.3595 18.3587 39.5356 24.562 39.5493 36.7882C39.5452 38.4958 38.1537 39.8889 36.4434 39.8929C34.7331 39.8887 33.3396 38.4958 33.3375 36.7882C33.3332 25.5961 42.7405 16.0652 54.6168 16.8246C64.9204 17.4654 73.3554 26.1114 73.3554 36.7901C73.3534 45.1357 68.3157 52.4669 60.524 55.4641C59.3231 55.9214 58.3024 56.7121 57.5714 57.7491C56.1636 59.7567 56.4532 60.9223 56.4532 67.4111C56.4491 69.1186 55.0555 70.5116 53.3473 70.5138C52.4902 70.5138 51.7944 71.2111 51.7944 72.0661C51.7944 75.3261 59.5518 73.3402 59.5591 67.4111V61.2864C59.563 59.9828 60.3603 58.8611 61.6379 58.3623C70.6663 54.8944 76.4694 46.3104 76.4611 36.7905C76.4611 20.5742 59.9818 9.27668 44.829 15.2911Z" fill="#112742"/>
<path d="M58.6447 82.9089C56.2243 78.8997 50.6404 78.9829 48.1763 82.6911C45.4704 86.7646 48.3086 92.3319 53.3964 92.3319C58.0842 92.3319 61.2077 87.1547 58.6447 82.9089ZM52.6047 89.1295C51.4006 88.8327 50.54 87.9375 50.3025 86.7348C49.6665 83.302 54.2034 81.5609 55.9856 84.5132C57.4304 86.9066 55.3179 89.7987 52.6047 89.1295Z" fill="#112742"/>
<path d="M79.5792 7.14899C51.9977 -8.85411 16.5585 3.0682 4.16724 32.3822C-0.875214 44.2912 -1.29528 57.6292 2.6557 69.6039C5.40404 77.9328 9.91981 83.9926 10.2836 84.3143L10.2898 84.306L10.2856 84.3164C10.2898 84.3205 10.2939 84.3226 10.3001 84.3288C10.3022 84.3288 10.3022 84.3311 10.3043 84.3331C10.3063 84.3331 10.3063 84.3352 10.3084 84.3373C10.8922 84.8273 11.3872 84.6872 11.5943 84.6872L11.5984 84.6851C11.6181 84.6851 11.7593 84.6534 11.8924 84.6002C11.8945 84.6002 11.8965 84.6002 11.8965 84.6002C11.8965 84.6002 11.9313 84.5839 11.9317 84.5837H11.9359C12.9398 84.1526 13.1172 82.8787 12.5735 82.2425C-11.3899 49.1724 12.5626 3.12534 53.0078 3.12534C80.9212 3.12534 102.908 25.889 102.908 53.0081C102.908 80.5735 80.5887 102.891 53.0078 102.891C42.4231 102.891 32.3084 99.6162 23.759 93.4235C23.2828 93.0777 22.6266 93.0345 22.1088 93.3158L4.67861 102.75C3.84986 103.193 3.10186 102.47 3.10703 101.833C3.11138 101.461 2.73044 102.275 9.72665 89.3561C10.2892 88.3202 9.52914 87.0649 8.36418 87.0649C7.79277 87.0649 7.26877 87.3773 6.99777 87.8783C-0.0450188 100.879 -0.00299096 100.443 0.0013567 101.833C0.00694654 104.876 3.30371 107.028 6.15722 105.482L22.7363 96.5053C40.6594 109.002 64.5284 109.178 82.6439 96.9461C115.077 75.047 113.431 26.7857 79.5792 7.14899Z" fill="#112742"/>
<path d="M11.8006 83.3054L7.96152 90.6416" stroke="#112742" stroke-width="2"/>
<path d="M11.0002 81.9999L6.85109 90.2783" stroke="#112742" stroke-width="2"/>
</g>
<defs>
<clipPath id="clip0">
<rect width="106" height="106" fill="white"/>
</clipPath>
</defs>
</svg>
