<svg width="36" height="36" viewBox="0 0 36 36" fill="none" xmlns="http://www.w3.org/2000/svg">
<path d="M22.2 21H21.54C21.2918 21.0005 21.0697 20.8456 20.9844 20.6124C20.9112 20.4204 20.8326 20.2326 20.748 20.0466C20.6429 19.8204 20.6908 19.5526 20.868 19.377L21.3384 18.906C22.0367 18.2015 22.0354 17.0654 21.3354 16.3626L19.6398 14.667C18.9361 13.9674 17.7995 13.9674 17.0958 14.667L16.6254 15.1368C16.4494 15.3133 16.1821 15.3612 15.9558 15.2568C15.7698 15.1722 15.582 15.0936 15.3894 15.0168C15.155 14.9321 14.9991 14.7092 15 14.46V13.8C15 12.8059 14.1941 12 13.2 12H10.8C9.80588 12 9 12.8059 9 13.8V14.46C9.00045 14.7083 8.84558 14.9303 8.6124 15.0156C8.4204 15.0888 8.2326 15.1674 8.0466 15.252C7.82033 15.3566 7.55288 15.3087 7.377 15.132L6.906 14.6616C6.20235 13.9625 5.06625 13.9625 4.3626 14.6616L2.667 16.3626C1.9674 17.0663 1.9674 18.2029 2.667 18.9066L3.1368 19.377C3.31395 19.5526 3.36195 19.8204 3.2568 20.0466C3.1722 20.2326 3.0936 20.4204 3.0198 20.613C2.93393 20.8475 2.70975 21.0026 2.46 21H1.8C0.805875 21 0 21.8059 0 22.8V25.2C0 26.1941 0.805875 27 1.8 27H2.46C2.70825 26.9996 2.93033 27.1544 3.0156 27.3876C3.0888 27.5796 3.1674 27.7674 3.252 27.9534C3.35715 28.1796 3.30915 28.4474 3.132 28.623L2.6616 29.094C1.96245 29.7977 1.96245 30.9338 2.6616 31.6374L4.3572 33.333C5.06093 34.0326 6.19747 34.0326 6.9012 33.333L7.3716 32.8632C7.54755 32.6867 7.81493 32.6388 8.0412 32.7432C8.2272 32.8278 8.415 32.9064 8.6076 32.9832C8.84317 33.0669 9.00045 33.29 9 33.54V34.2C9 35.1941 9.80588 36 10.8 36H13.2C14.1941 36 15 35.1941 15 34.2V33.54C14.9996 33.2918 15.1544 33.0697 15.3876 32.9844C15.5796 32.9112 15.7674 32.8326 15.9534 32.748C16.1797 32.6434 16.4471 32.6913 16.623 32.868L17.094 33.3384C17.7986 34.0364 18.9344 34.0351 19.6374 33.3354L21.333 31.6398C22.0326 30.9361 22.0326 29.7995 21.333 29.0958L20.8632 28.6254C20.6861 28.4498 20.6381 28.182 20.7432 27.9558C20.8278 27.7698 20.9064 27.582 20.9832 27.3894C21.0679 27.155 21.2908 26.9991 21.54 27H22.2C23.1941 27 24 26.1941 24 25.2V22.8C24 21.8059 23.1941 21 22.2 21ZM22.8 25.2C22.8 25.5314 22.5314 25.8 22.2 25.8H21.54C20.7941 25.8028 20.1266 26.2638 19.86 26.9604C19.7964 27.1284 19.7276 27.2938 19.6536 27.4566C19.3451 28.1376 19.4882 28.9383 20.0136 29.4702L20.4828 29.94C20.7173 30.1742 20.7175 30.5541 20.4832 30.7886C20.4831 30.7887 20.483 30.7889 20.4828 30.789L18.7872 32.4846C18.5529 32.7188 18.1731 32.7188 17.9388 32.4846L17.4684 32.0148C16.9367 31.489 16.1357 31.3458 15.4548 31.6548C15.2922 31.7286 15.1266 31.7976 14.9598 31.8612C14.2637 32.1278 13.803 32.7947 13.8 33.54V34.2C13.8 34.5314 13.5314 34.8 13.2 34.8H10.8C10.4687 34.8 10.2 34.5314 10.2 34.2V33.54C10.1972 32.7941 9.7362 32.1266 9.0396 31.86C8.8716 31.7964 8.70623 31.7276 8.5434 31.6536C7.8624 31.3453 7.06178 31.4885 6.5298 32.0136L6.06 32.4828C5.82585 32.7173 5.4459 32.7175 5.21145 32.4833C5.2113 32.4831 5.21115 32.483 5.211 32.4828L3.5154 30.789C3.28118 30.5547 3.28118 30.1749 3.5154 29.9406L3.9852 29.4702C4.51058 28.9383 4.65368 28.1376 4.3452 27.4566C4.2714 27.294 4.2024 27.1284 4.1388 26.9616C3.87285 26.2648 3.2058 25.8033 2.46 25.8H1.8C1.46865 25.8 1.2 25.5314 1.2 25.2V22.8C1.2 22.4687 1.46865 22.2 1.8 22.2H2.46C3.20588 22.1972 3.87338 21.7362 4.14 21.0396C4.2036 20.8716 4.27238 20.7062 4.3464 20.5434C4.65488 19.8624 4.5117 19.0617 3.9864 18.5298L3.5148 18.06C3.28035 17.8259 3.28013 17.4459 3.51435 17.2115C3.5145 17.2113 3.51465 17.2112 3.5148 17.211L5.2104 15.5154C5.4447 15.2812 5.8245 15.2812 6.0588 15.5154L6.5292 15.9852C7.06088 16.511 7.86188 16.6542 8.5428 16.3452C8.7054 16.2714 8.871 16.2024 9.0378 16.1388C9.73485 15.8731 10.1966 15.206 10.2 14.46V13.8C10.2 13.4687 10.4687 13.2 10.8 13.2H13.2C13.5314 13.2 13.8 13.4687 13.8 13.8V14.46C13.8028 15.2059 14.2638 15.8734 14.9604 16.14C15.1284 16.2036 15.2938 16.2724 15.4566 16.3464C16.1375 16.6554 16.9385 16.5122 17.4702 15.9864L17.94 15.5172C18.1752 15.2846 18.5538 15.2846 18.789 15.5172L20.4846 17.2128C20.7188 17.4471 20.7188 17.8269 20.4846 18.0612L20.0148 18.5316C19.4895 19.0635 19.3463 19.8642 19.6548 20.5452C19.7286 20.7078 19.7976 20.8734 19.8612 21.0402C20.1278 21.7363 20.7947 22.197 21.54 22.2H22.2C22.5314 22.2 22.8 22.4687 22.8 22.8V25.2Z" fill="#112742"/>
<path d="M17.3888 23.76C17.3828 23.616 17.3726 23.4726 17.3552 23.3298C17.336 23.1762 17.3132 23.0238 17.2814 22.8744C17.2604 22.7766 17.2328 22.68 17.2064 22.5828C17.1728 22.4592 17.135 22.3374 17.093 22.2174C17.0636 22.134 17.033 22.0512 17.0018 21.969C16.9245 21.7768 16.8362 21.5893 16.7372 21.4074C16.7294 21.3936 16.7246 21.3786 16.7168 21.3648C16.5607 21.087 16.3799 20.8237 16.1768 20.5782C16.1594 20.5566 16.1396 20.5362 16.1216 20.5152C16.0388 20.4174 15.9536 20.3226 15.8642 20.232C15.8174 20.1834 15.7682 20.1378 15.719 20.091C15.659 20.0352 15.599 19.98 15.539 19.9272C15.4661 19.864 15.392 19.8028 15.3164 19.7436L15.218 19.6704C14.2895 18.975 13.1607 18.5994 12.0008 18.6C11.9408 18.6 11.8808 18.609 11.8208 18.6114C11.693 18.615 11.5646 18.6222 11.4356 18.6354C11.3678 18.6426 11.2994 18.6504 11.2316 18.66C11.036 18.6857 10.8419 18.722 10.6502 18.7686C7.76109 19.5151 6.02424 22.4625 6.77079 25.3516C7.26279 27.2554 8.75019 28.7416 10.6544 29.232C10.664 29.232 10.6742 29.235 10.6844 29.2374C10.8916 29.2891 11.1015 29.3292 11.3132 29.3574C11.453 29.3748 11.5928 29.3784 11.7332 29.385C11.8268 29.3898 11.9132 29.4036 12.011 29.4036C12.182 29.4036 12.3596 29.3922 12.5408 29.3742C12.56 29.3742 12.5792 29.3688 12.6008 29.3664C12.7466 29.3502 12.8942 29.3286 13.0448 29.2986C13.1048 29.2872 13.1606 29.2722 13.2182 29.259C13.3238 29.2344 13.4288 29.2086 13.5368 29.1768C13.6208 29.1516 13.7024 29.1222 13.7846 29.0934C13.8668 29.0646 13.952 29.0334 14.0372 29.001C14.1224 28.9686 14.1938 28.9314 14.2712 28.8954C14.372 28.8492 14.4722 28.8036 14.5712 28.7496H14.5748C15.1347 28.4498 15.6519 28.0763 16.1126 27.639C16.237 27.5229 16.3452 27.3904 16.4342 27.2454C16.9025 26.4946 17.2101 25.655 17.3378 24.7794C17.3546 24.6636 17.3696 24.5478 17.3786 24.4296C17.387 24.321 17.393 24.213 17.3954 24.105C17.3954 24.0708 17.4002 24.0384 17.4002 24.0042C17.4008 23.9196 17.3924 23.8416 17.3888 23.76ZM16.193 24.153C16.193 24.2028 16.1888 24.2526 16.1858 24.3018C16.175 24.447 16.1564 24.5922 16.1318 24.738C15.9075 25.9855 15.133 27.0655 14.0234 27.678C13.949 27.717 13.8758 27.7536 13.8026 27.7872L13.7528 27.8112C13.4042 27.9694 13.0362 28.0808 12.6584 28.1424C12.632 28.1466 12.605 28.1514 12.578 28.155C12.503 28.1658 12.4292 28.1748 12.356 28.1814C12.2594 28.1898 12.1622 28.1946 12.0632 28.1964C12.0212 28.1964 11.9798 28.1964 11.9378 28.1964C11.7958 28.1947 11.654 28.186 11.513 28.17L11.441 28.1616C11.276 28.14 11.1123 28.1092 10.9508 28.0692C8.70362 27.494 7.34822 25.2061 7.92332 22.9589C8.30334 21.4741 9.46209 20.3141 10.9466 19.9326V19.932C11.2913 19.8451 11.6453 19.8007 12.0008 19.8C12.1723 19.801 12.3437 19.8126 12.5138 19.8348C12.5594 19.8402 12.6044 19.8486 12.6494 19.8552C12.779 19.8756 12.9074 19.9014 13.034 19.9338C13.0754 19.9446 13.1168 19.9542 13.1576 19.9656C13.4766 20.0577 13.7837 20.187 14.0726 20.3508C14.1188 20.3778 14.1638 20.406 14.2094 20.4342C14.3042 20.4942 14.396 20.5542 14.4866 20.6226C14.5352 20.658 14.5844 20.6928 14.6312 20.7306C14.7489 20.8246 14.8616 20.9248 14.969 21.0306C15.0116 21.0738 15.0506 21.1212 15.092 21.1662C15.161 21.2412 15.2282 21.318 15.2924 21.399C15.3368 21.4548 15.3794 21.5124 15.4214 21.5706C15.4814 21.657 15.5414 21.747 15.5954 21.8382C15.6254 21.888 15.6554 21.9366 15.686 21.9876C15.7634 22.13 15.8323 22.2769 15.8924 22.4274C15.9164 22.4874 15.9368 22.5474 15.9584 22.6074C15.9974 22.7178 16.031 22.8294 16.0604 22.9422C16.0754 23.0022 16.0922 23.0556 16.1048 23.1138C16.1398 23.2759 16.1652 23.44 16.181 23.6052C16.1846 23.649 16.1846 23.6934 16.1876 23.7372C16.196 23.8752 16.1984 24.0138 16.193 24.153Z" fill="#112742"/>
<path d="M34.2003 12.6H32.3133C32.0617 12.6026 31.8366 12.4441 31.7541 12.2064C31.5681 11.6491 31.3429 11.1055 31.0803 10.5798C30.9689 10.3528 31.0153 10.0799 31.1955 9.9024L32.5335 8.5626C33.2358 7.85978 33.2358 6.72083 32.5335 6.018L29.9823 3.471C29.2795 2.7687 28.1406 2.7687 27.4377 3.471L26.1003 4.8078C25.9231 4.98795 25.6506 5.0346 25.4235 4.9236C24.8978 4.65968 24.354 4.43333 23.7963 4.2462C23.5577 4.16453 23.3981 3.93923 23.4003 3.687V1.8C23.4003 0.805875 22.5945 0 21.6003 0H18.0003C17.0062 0 16.2003 0.805875 16.2003 1.8V3.687C16.2029 3.93863 16.0445 4.1637 15.8067 4.2462C15.2493 4.43325 14.7057 4.65945 14.1801 4.923C13.9531 5.03483 13.68 4.9884 13.5027 4.8078L12.1629 3.4698C11.4593 2.76953 10.322 2.76953 9.61833 3.4698L7.07193 6.0162C6.36925 6.7191 6.36925 7.8585 7.07193 8.5614L9.03933 10.5324C9.2773 10.763 9.65718 10.757 9.88773 10.5189C10.1127 10.2867 10.1132 9.918 9.88893 9.6852L7.92033 7.7148C7.6861 7.4805 7.6861 7.1007 7.92033 6.8664L10.4667 4.32C10.701 4.08577 11.0808 4.08577 11.3151 4.32L12.6555 5.658C13.1979 6.20355 14.0289 6.3399 14.7171 5.9964C15.1924 5.75843 15.6838 5.55413 16.1877 5.385C16.9151 5.13878 17.4035 4.45493 17.4003 3.687V1.8C17.4003 1.46865 17.669 1.2 18.0003 1.2H21.6003C21.9317 1.2 22.2003 1.46865 22.2003 1.8V3.687C22.1973 4.45478 22.6857 5.1384 23.4129 5.3844C23.9171 5.5536 24.4087 5.75805 24.8841 5.9964C25.5726 6.3381 26.4024 6.2016 26.9451 5.6574L28.2855 4.32C28.5198 4.08577 28.8996 4.08577 29.1339 4.32L31.6803 6.867C31.9142 7.10122 31.9142 7.48058 31.6803 7.7148L30.3423 9.0552C29.7973 9.59783 29.661 10.4285 30.0039 11.1168C30.2419 11.5921 30.4462 12.0835 30.6153 12.5874C30.8614 13.3149 31.5453 13.8033 32.3133 13.8H34.2003C34.5317 13.8 34.8003 14.0687 34.8003 14.4V18C34.8003 18.3314 34.5317 18.6 34.2003 18.6H32.3133C31.5456 18.5969 30.8619 19.0853 30.6159 19.8126C30.4468 20.3168 30.2423 20.8084 30.0039 21.2838C29.6616 21.9722 29.7982 22.8023 30.3429 23.3448L31.6809 24.6852C31.9152 24.9195 31.9152 25.2993 31.6809 25.5336L29.1333 28.08C28.8991 28.3139 28.5198 28.3139 28.2855 28.08L26.3139 26.1126C26.0834 25.8746 25.7035 25.8686 25.4655 26.0991C25.2275 26.3297 25.2215 26.7095 25.452 26.9475C25.4568 26.9524 25.4618 26.9574 25.4667 26.9622L27.4377 28.9296C28.1406 29.6319 29.2795 29.6319 29.9823 28.9296L32.5287 26.3838C33.2314 25.6809 33.2314 24.5415 32.5287 23.8386L31.1925 22.5C31.0125 22.3227 30.966 22.0502 31.0767 21.8232C31.3407 21.2975 31.567 20.7537 31.7541 20.196C31.8358 19.9573 32.0611 19.7978 32.3133 19.8H34.2003C35.1945 19.8 36.0003 18.9941 36.0003 18V14.4C36.0003 13.4059 35.1945 12.6 34.2003 12.6Z" fill="#112742"/>
<path d="M25.315 10.6848C22.2672 7.64332 17.3325 7.64332 14.2846 10.6848C14.0544 10.9231 14.061 11.303 14.2994 11.5332C14.5319 11.7577 14.9005 11.7577 15.133 11.5332C17.6931 8.9385 21.8719 8.91052 24.4666 11.4706C27.0613 14.0308 27.0893 18.2095 24.5292 20.8042C24.5085 20.8252 24.4876 20.8461 24.4666 20.8668C24.2283 21.097 24.2217 21.4768 24.4519 21.7152C24.6822 21.9535 25.062 21.9601 25.3003 21.7299C25.3053 21.7251 25.3102 21.7201 25.315 21.7152C28.3565 18.6673 28.3565 13.7326 25.315 10.6848Z" fill="#112742"/>
</svg>
