<?xml version="1.0" standalone="no"?>
<!DOCTYPE svg PUBLIC "-//W3C//DTD SVG 20010904//EN"
 "http://www.w3.org/TR/2001/REC-SVG-20010904/DTD/svg10.dtd">
<svg version="1.0" xmlns="http://www.w3.org/2000/svg"
 width="740.000000pt" height="546.000000pt" viewBox="0 0 740.000000 546.000000"
 preserveAspectRatio="xMidYMid meet">

<g transform="translate(0.000000,546.000000) scale(0.100000,-0.100000)"
fill="#000000" stroke="none">
<path d="M3318 4904 c-10 -10 -44 -20 -90 -25 -92 -10 -152 -25 -156 -38 -2
-6 -12 -11 -23 -11 -10 0 -19 -4 -19 -10 0 -5 -12 -10 -26 -10 -15 0 -34 -9
-44 -20 -9 -11 -29 -26 -43 -33 -32 -17 -177 -155 -194 -185 -7 -12 -13 -30
-13 -40 0 -10 -13 -31 -30 -47 -22 -21 -30 -38 -30 -62 0 -18 -4 -33 -10 -33
-5 0 -10 -17 -10 -38 0 -26 -6 -42 -20 -52 -19 -14 -20 -26 -20 -246 0 -218 1
-232 20 -249 12 -11 20 -31 20 -51 0 -18 5 -36 10 -39 6 -3 10 -26 10 -51 0
-24 5 -44 10 -44 6 0 10 -56 10 -148 0 -136 2 -150 20 -167 17 -15 20 -31 20
-96 0 -43 5 -81 10 -84 6 -3 10 -16 10 -29 0 -13 9 -31 20 -41 11 -10 20 -28
20 -41 0 -13 5 -26 10 -29 6 -3 10 -15 10 -27 0 -11 14 -33 30 -48 17 -15 30
-32 30 -37 0 -5 14 -22 30 -38 17 -16 30 -33 30 -37 0 -5 32 -40 70 -78 l70
-69 0 -124 0 -123 -97 -95 c-54 -52 -103 -103 -109 -114 -14 -25 -62 -53 -94
-54 -31 -2 -93 -23 -112 -38 -7 -7 -36 -17 -63 -23 -63 -13 -105 -30 -105 -41
0 -5 -18 -9 -40 -9 -22 0 -40 -4 -40 -10 0 -5 -13 -10 -28 -10 -16 0 -34 -8
-42 -20 -8 -11 -22 -20 -32 -20 -10 0 -18 -4 -18 -10 0 -14 -20 -13 -53 3 -30
13 -32 24 -15 62 8 18 19 25 38 25 33 0 80 23 105 50 10 11 34 30 52 42 72 44
108 154 66 200 -22 24 -34 134 -39 363 -4 151 -8 182 -22 198 -12 14 -19 45
-24 111 -8 117 -16 155 -39 185 -11 13 -19 29 -19 35 0 12 -49 108 -59 116 -4
3 -14 17 -24 33 -10 15 -23 27 -30 27 -7 0 -29 16 -48 36 -40 42 -116 94 -138
94 -9 0 -32 14 -51 30 -27 23 -45 30 -77 30 -23 0 -45 5 -48 10 -4 6 -65 10
-151 10 -89 0 -144 -4 -144 -10 0 -5 -22 -10 -48 -10 -36 0 -51 -5 -62 -20 -8
-11 -22 -20 -32 -20 -9 0 -20 -4 -23 -10 -3 -5 -16 -10 -27 -10 -11 0 -28 -8
-37 -19 -9 -10 -32 -26 -51 -36 -35 -18 -80 -62 -80 -78 0 -5 -13 -22 -30 -37
-16 -15 -30 -35 -30 -44 0 -9 -4 -16 -10 -16 -5 0 -10 -7 -10 -16 0 -9 -8 -24
-18 -33 -25 -24 -42 -57 -42 -86 0 -13 -9 -40 -20 -60 -11 -20 -20 -44 -20
-55 0 -10 -4 -22 -10 -25 -6 -4 -10 -98 -10 -250 0 -152 -4 -246 -10 -250 -6
-3 -10 -31 -10 -61 0 -41 -5 -60 -20 -76 -11 -12 -20 -34 -20 -50 0 -16 -5
-37 -12 -47 -9 -14 -8 -26 2 -50 15 -37 152 -181 172 -181 8 0 20 -9 28 -20 8
-11 20 -20 28 -20 16 0 42 -24 42 -40 0 -15 -25 -40 -40 -40 -6 0 -20 -8 -31
-18 -11 -11 -39 -25 -62 -33 -23 -7 -51 -22 -62 -32 -11 -10 -33 -26 -49 -34
-54 -28 -96 -82 -96 -123 0 -11 -9 -30 -20 -42 -19 -21 -20 -36 -20 -348 l0
-326 34 -37 c22 -25 42 -37 60 -37 14 0 26 5 26 10 0 6 7 10 16 10 43 0 44 11
44 375 l0 347 51 47 c30 28 69 52 94 60 24 7 52 21 64 32 11 10 32 19 46 19
14 0 25 5 25 10 0 6 14 10 30 10 17 0 30 5 30 10 0 18 55 11 70 -10 8 -11 22
-20 32 -20 11 0 18 -7 18 -18 0 -17 36 -42 61 -42 5 0 22 -11 37 -25 26 -24
32 -25 157 -25 l130 0 49 40 c26 22 52 40 57 40 4 0 19 10 32 22 42 41 97 63
97 39 0 -5 9 -11 20 -14 15 -4 20 -14 20 -41 0 -20 -4 -36 -10 -36 -5 0 -10
-13 -10 -30 0 -16 -3 -30 -7 -30 -28 0 -33 -63 -33 -382 l0 -329 35 -34 c40
-41 80 -46 113 -15 22 21 22 24 22 340 0 176 4 339 10 362 5 24 12 55 15 69 6
34 103 129 131 129 12 0 27 7 34 15 20 24 71 45 110 45 21 0 43 6 49 14 10 12
128 53 204 70 15 4 27 11 27 16 0 6 15 10 34 10 19 0 38 5 41 10 3 6 24 10 45
10 35 0 41 -4 55 -34 9 -19 25 -42 36 -52 10 -9 19 -22 19 -27 0 -5 18 -29 40
-53 22 -24 40 -50 40 -59 0 -8 14 -29 30 -47 17 -17 30 -34 30 -39 0 -4 20
-21 46 -38 37 -26 55 -31 102 -31 56 0 58 1 124 65 68 66 109 83 122 49 3 -9
6 -192 6 -408 0 -292 3 -395 12 -404 21 -21 105 -15 133 10 l25 22 0 398 c0
378 1 398 18 398 10 0 27 -8 38 -18 10 -10 37 -31 59 -47 22 -17 49 -38 59
-47 14 -13 37 -18 79 -18 57 0 60 1 113 52 30 28 54 56 54 61 0 5 14 22 30 37
17 15 30 38 30 50 0 12 12 34 28 48 15 15 34 41 42 57 28 57 57 78 98 72 68
-10 107 -20 112 -27 11 -16 71 -40 100 -40 29 0 68 -14 80 -29 15 -18 55 -31
95 -31 25 0 45 -4 45 -10 0 -5 13 -10 28 -10 16 0 34 -8 42 -20 8 -11 25 -20
38 -20 26 0 79 -50 102 -95 8 -17 23 -37 32 -46 17 -15 18 -46 18 -373 0 -409
-4 -389 82 -384 48 3 53 5 56 28 2 14 8 29 13 35 13 13 12 602 -1 610 -5 3
-10 39 -10 79 0 67 -2 75 -30 104 -16 18 -30 41 -30 51 0 11 -4 23 -10 26 -15
9 -12 19 11 33 16 10 28 10 57 1 60 -19 82 -32 82 -46 0 -18 73 -90 100 -98
20 -6 20 -16 20 -401 0 -416 1 -424 44 -424 9 0 16 -4 16 -10 0 -18 45 -10 71
13 49 42 49 44 49 429 l0 363 88 85 87 85 95 -3 c52 -2 99 -7 105 -13 5 -5 23
-9 40 -9 17 0 41 -9 53 -20 13 -12 35 -20 57 -20 19 0 35 -4 35 -10 0 -5 11
-10 25 -10 26 0 77 -44 103 -88 9 -16 12 -113 12 -385 l0 -363 25 -22 c28 -25
112 -31 133 -10 17 17 17 790 1 821 -32 59 -148 177 -175 177 -13 0 -26 4 -29
10 -3 5 -16 10 -29 10 -13 0 -31 9 -41 20 -13 14 -31 20 -61 20 -24 0 -46 5
-49 10 -3 6 -30 10 -58 10 -36 0 -60 6 -77 20 -14 11 -33 20 -42 20 -50 0 -65
108 -22 159 14 17 32 31 40 31 7 0 21 12 31 27 10 16 28 39 40 53 13 14 23 28
23 32 0 3 12 21 26 38 26 30 34 54 54 164 5 27 16 56 25 66 12 13 15 42 15
127 0 109 14 176 42 211 32 38 38 88 38 343 0 254 0 256 -23 277 -23 22 -24
22 -505 22 -315 0 -482 -3 -482 -10 0 -5 -20 -10 -45 -10 -37 0 -51 -6 -77
-30 -17 -16 -35 -30 -39 -30 -17 0 -139 -117 -139 -132 0 -6 -13 -23 -30 -38
-18 -17 -30 -38 -30 -54 0 -14 -4 -26 -10 -26 -6 0 -10 -60 -10 -160 0 -100 4
-160 10 -160 6 0 10 -6 10 -13 0 -7 9 -23 20 -35 11 -12 20 -30 20 -42 0 -11
5 -20 10 -20 6 0 10 -58 10 -153 0 -141 2 -154 20 -167 12 -8 20 -26 20 -42 0
-15 5 -28 10 -28 6 0 10 -9 10 -21 0 -12 14 -34 30 -49 16 -15 30 -33 30 -39
0 -7 32 -43 70 -81 l70 -69 0 -59 c0 -57 -1 -60 -30 -71 -16 -6 -43 -16 -60
-22 -16 -6 -30 -15 -30 -20 0 -5 -49 -9 -110 -9 -60 0 -110 4 -110 8 0 11 -66
42 -88 42 -26 0 -127 39 -130 50 -2 6 -21 10 -42 10 -48 0 -120 37 -120 62 0
10 -4 18 -10 18 -5 0 -10 9 -10 19 0 12 -12 25 -30 33 -16 7 -30 18 -30 25 0
7 -18 24 -40 38 l-40 25 0 156 0 156 40 38 c22 21 40 46 40 54 0 9 7 16 16 16
18 0 44 24 44 40 0 7 12 24 28 39 33 32 52 65 52 89 0 10 9 24 20 32 11 8 20
22 20 32 0 10 5 18 10 18 6 0 10 20 10 43 0 31 6 49 20 62 12 11 20 31 20 52
0 18 5 33 10 33 6 0 10 73 10 199 0 123 4 202 10 206 6 3 10 16 10 28 0 13 9
29 20 37 16 11 20 26 20 67 0 28 5 55 10 58 6 4 10 190 10 524 l0 518 -35 31
-34 32 -649 0 c-584 0 -649 -2 -664 -16z m1206 -150 c14 -5 16 -55 16 -460 0
-441 -1 -455 -20 -476 -13 -15 -20 -36 -20 -64 0 -24 -4 -46 -10 -49 -5 -3
-10 -15 -10 -26 0 -10 -4 -19 -9 -19 -20 0 -26 -45 -33 -240 -7 -215 -15 -300
-28 -300 -11 0 -50 -85 -50 -109 0 -11 -8 -26 -18 -33 -11 -7 -25 -24 -32 -37
-30 -57 -222 -221 -258 -221 -9 0 -31 -14 -49 -30 -21 -20 -42 -30 -62 -30
-16 0 -33 -4 -36 -10 -3 -5 -21 -10 -38 -10 -18 0 -43 -9 -57 -20 -22 -17 -41
-20 -156 -20 -116 0 -134 2 -157 20 -14 11 -39 20 -55 20 -17 0 -34 5 -37 10
-3 6 -21 10 -39 10 -23 0 -43 9 -64 30 -18 17 -41 30 -52 30 -37 0 -69 23
-181 134 -66 64 -109 122 -109 147 0 6 -13 27 -30 46 -23 25 -30 44 -30 73 0
22 -4 40 -9 40 -4 0 -18 23 -30 51 -19 47 -21 70 -21 245 0 193 -5 226 -38
266 -28 34 -36 105 -36 333 0 239 5 283 43 331 11 15 26 44 31 66 7 25 19 43
36 50 13 6 24 19 24 29 0 10 14 26 30 36 17 9 33 25 36 35 3 10 14 18 25 18
11 0 32 11 47 25 30 29 65 46 132 65 25 8 52 19 60 25 8 7 22 15 30 18 21 7
1244 8 1264 1z m-2684 -1304 c9 -13 26 -20 47 -20 37 0 65 -13 100 -47 13 -13
28 -23 33 -23 14 0 90 -70 90 -82 0 -6 14 -23 30 -38 18 -17 30 -38 30 -54 0
-14 5 -26 10 -26 6 0 10 -11 10 -23 0 -13 9 -32 20 -42 14 -13 20 -31 20 -62
0 -23 5 -43 10 -43 12 0 14 -157 2 -164 -20 -12 -88 42 -152 121 -16 20 -158
93 -181 93 -8 0 -29 9 -47 20 -18 11 -46 20 -62 20 -17 0 -30 5 -30 10 0 6
-58 10 -155 10 -139 0 -156 -2 -162 -17 -4 -10 -20 -29 -36 -43 -17 -14 -48
-42 -69 -62 -36 -35 -39 -41 -36 -85 l3 -48 62 -3 c54 -3 66 0 86 20 88 86 92
88 165 88 48 0 81 -6 110 -20 22 -11 56 -20 75 -20 20 0 50 -10 71 -25 20 -14
51 -32 69 -41 17 -9 36 -23 40 -30 4 -8 13 -14 18 -14 14 0 39 -26 39 -40 0
-17 26 -40 44 -40 10 0 16 -9 16 -24 0 -14 5 -28 10 -31 6 -3 10 -30 10 -60 0
-30 -4 -57 -10 -60 -5 -3 -10 -15 -10 -27 0 -11 -13 -33 -30 -48 -16 -15 -30
-35 -30 -44 0 -9 -4 -16 -9 -16 -5 0 -27 -18 -50 -40 -22 -22 -48 -40 -56 -40
-20 0 -85 -32 -85 -42 0 -4 -67 -8 -148 -8 -144 0 -149 1 -171 24 -12 13 -35
26 -51 29 -34 7 -170 138 -170 165 0 10 -9 28 -20 40 -11 12 -20 30 -20 42 0
11 -4 20 -10 20 -6 0 -10 28 -10 63 0 67 -17 98 -60 112 -19 6 -20 14 -20 131
0 76 4 124 10 124 6 0 10 23 10 50 0 42 5 55 30 82 17 17 30 40 30 50 0 11 18
37 40 58 22 21 40 45 40 53 0 8 13 20 28 26 15 7 39 22 53 34 39 35 66 47 102
47 21 0 38 7 47 20 13 18 26 20 140 20 114 0 127 -2 140 -20z m4198 -169 c1
-116 -1 -188 -8 -195 -5 -5 -10 -34 -10 -63 0 -29 -4 -53 -10 -53 -5 0 -10 -8
-10 -18 0 -10 -9 -24 -20 -32 -18 -13 -20 -26 -20 -162 0 -87 -4 -149 -10
-153 -5 -3 -10 -21 -10 -38 0 -21 -7 -38 -20 -47 -11 -8 -20 -21 -20 -28 0
-23 -139 -148 -191 -173 -27 -12 -49 -26 -49 -31 0 -4 -65 -8 -145 -8 -137 0
-146 1 -181 25 -20 14 -43 25 -50 25 -24 0 -64 23 -64 37 0 7 -8 17 -17 20
-22 8 -43 28 -43 41 0 5 -13 23 -30 40 -16 18 -30 41 -30 51 0 11 -4 23 -10
26 -5 3 -10 37 -10 74 0 53 -4 72 -20 89 -17 18 -20 35 -20 122 0 60 -4 100
-10 100 -5 0 -10 15 -10 34 0 26 -7 41 -30 59 -28 24 -30 30 -30 101 0 44 4
76 10 76 6 0 10 8 10 18 0 10 9 24 20 32 14 10 20 26 20 51 0 31 5 38 28 48
15 7 39 22 53 34 31 28 65 47 82 47 7 0 19 9 27 20 14 20 24 20 420 18 l405
-3 3 -184z m-2793 -741 c3 -5 16 -10 29 -10 12 0 32 -9 44 -20 12 -11 27 -20
35 -20 7 0 17 -4 23 -9 28 -28 510 -28 538 0 6 5 17 9 26 9 8 0 22 9 30 20 11
16 26 20 71 20 50 0 57 -3 63 -22 15 -59 0 -118 -32 -118 -9 0 -28 -9 -42 -20
-79 -63 -150 -110 -164 -110 -9 0 -16 -4 -16 -9 0 -5 -15 -16 -33 -24 -18 -9
-42 -26 -52 -37 -11 -12 -39 -31 -64 -42 -55 -25 -95 -18 -138 22 -18 17 -39
30 -47 30 -9 0 -16 5 -16 10 0 6 -7 10 -15 10 -8 0 -29 14 -47 30 -17 17 -35
30 -40 30 -5 0 -20 11 -33 24 -13 13 -37 27 -53 31 -16 3 -40 17 -52 31 -13
13 -28 24 -33 24 -6 0 -19 7 -29 17 -18 16 -25 92 -12 127 7 18 49 22 59 6z
m-967 -102 c7 -7 12 -27 12 -44 0 -18 5 -36 10 -39 6 -3 10 -24 10 -46 0 -32
-7 -46 -35 -74 -19 -19 -44 -35 -55 -35 -11 0 -34 -13 -52 -30 -55 -53 -143
-33 -123 29 3 10 32 43 65 74 33 30 65 66 71 81 7 14 16 26 20 26 4 0 11 9 14
20 7 21 32 50 44 50 4 0 12 -5 19 -12z m-1104 -34 c9 -3 16 -13 16 -21 0 -8
14 -28 30 -43 17 -15 30 -33 30 -40 0 -6 18 -29 40 -50 50 -48 56 -96 13 -106
-14 -4 -34 -2 -44 5 -10 6 -23 11 -29 11 -6 0 -35 25 -65 55 l-55 55 0 64 c0
72 16 89 64 70z m3033 -176 c20 -19 33 -42 33 -57 0 -22 -62 -115 -101 -151
-9 -8 -26 -35 -39 -60 -13 -25 -31 -52 -42 -61 -10 -9 -23 -31 -29 -48 -16
-46 -48 -41 -111 18 -29 27 -68 63 -85 79 -36 33 -46 82 -17 82 9 0 29 14 44
30 15 17 33 30 39 30 7 0 23 11 37 25 14 14 37 28 52 31 15 4 41 19 59 35 17
15 40 30 50 33 10 3 25 15 33 26 20 28 39 25 77 -12z m-1006 -11 c44 -22 75
-43 143 -99 19 -16 42 -28 52 -28 11 0 33 -14 51 -30 18 -17 36 -30 41 -30 6
0 13 -7 16 -16 8 -20 -19 -64 -38 -64 -7 0 -18 -11 -24 -25 -6 -14 -16 -25
-22 -25 -5 0 -29 -18 -51 -40 -23 -22 -44 -40 -48 -40 -13 0 -101 83 -101 95
0 7 -7 18 -15 25 -9 7 -23 29 -33 49 -9 20 -29 49 -44 65 -16 16 -28 37 -28
47 0 10 -13 27 -30 39 -16 12 -30 28 -30 35 0 8 14 22 30 32 17 9 30 21 30 25
0 16 58 7 101 -15z m-1333 -199 c2 -56 -1 -88 -8 -88 -5 0 -10 -6 -10 -14 0
-20 -89 -46 -155 -46 -61 0 -120 24 -161 65 -20 20 -24 34 -24 85 0 34 5 67
13 75 10 12 44 14 177 12 l165 -2 3 -87z m3810 55 c3 -28 -5 -41 -61 -97 -36
-35 -74 -69 -86 -75 -28 -16 -48 -4 -127 75 -55 54 -64 69 -64 99 l0 35 168
-2 167 -3 3 -32z"/>
<path d="M3130 4163 c-37 -6 -80 -24 -80 -34 0 -5 -12 -9 -26 -9 -50 0 -54
-14 -54 -204 l0 -176 53 0 c29 0 58 5 65 12 8 8 12 49 12 120 0 102 1 108 24
123 20 13 69 15 367 11 340 -4 459 -11 469 -26 10 -16 82 -50 105 -50 23 0 62
-16 75 -30 3 -3 21 -17 40 -30 19 -13 39 -30 43 -37 4 -7 23 -13 41 -13 39 0
96 46 96 77 0 21 -70 92 -112 113 -16 7 -28 17 -28 22 0 4 -9 8 -20 8 -11 0
-20 5 -20 10 0 6 -13 10 -28 10 -16 0 -34 8 -42 20 -8 11 -22 20 -32 20 -10 0
-18 5 -18 10 0 6 -20 10 -45 10 -25 0 -53 4 -63 9 -70 37 -121 41 -461 40
-185 -1 -347 -4 -361 -6z"/>
<path d="M5225 3208 c-66 -39 -82 -92 -40 -133 23 -23 31 -25 130 -25 63 0
105 -4 105 -10 0 -6 39 -10 98 -10 86 0 99 -2 112 -20 8 -12 26 -20 42 -20 15
0 28 -4 28 -10 0 -16 106 -12 119 4 19 22 10 97 -13 110 -11 6 -33 23 -49 39
-28 25 -36 27 -113 27 -46 0 -86 5 -89 10 -3 6 -40 10 -81 10 -41 0 -74 4 -74
8 0 28 -134 43 -175 20z"/>
<path d="M5973 1555 c-10 -11 -13 -86 -13 -300 0 -325 -2 -315 77 -315 44 1
50 4 71 36 21 34 22 43 22 293 l0 257 -25 22 c-30 26 -112 30 -132 7z"/>
<path d="M1230 1461 c0 -5 -9 -11 -20 -14 -19 -5 -20 -14 -20 -252 0 -238 1
-247 20 -252 11 -3 20 -9 20 -14 0 -19 52 -8 75 16 l25 24 0 236 c0 228 -1
237 -20 242 -11 3 -20 9 -20 14 0 5 -13 9 -30 9 -16 0 -30 -4 -30 -9z"/>
<path d="M2613 1378 c-23 -11 -23 -14 -23 -203 l0 -191 25 -22 c35 -30 94 -30
123 1 21 22 22 32 22 215 l0 192 -26 10 c-33 13 -93 12 -121 -2z"/>
<path d="M4564 1373 c-3 -10 -10 -28 -15 -41 -5 -13 -9 -92 -9 -176 0 -195 8
-216 81 -216 79 0 79 -1 79 227 0 142 -3 202 -12 211 -7 7 -36 12 -65 12 -42
0 -55 -4 -59 -17z"/>
</g>
</svg>
