<svg width="106" height="107" viewBox="0 0 106 107" fill="none" xmlns="http://www.w3.org/2000/svg">
<g clip-path="url(#clip0)">
<path d="M53 106.871C23.7754 106.871 0 83.0957 0 53.8711C0 24.6465 23.7754 0.871094 53 0.871094C82.2246 0.871094 106 24.6465 106 53.8711C106 83.0957 82.2246 106.871 53 106.871ZM53 8.44229C27.9508 8.44229 7.5712 28.8219 7.5712 53.8711C7.5712 78.9203 27.9508 99.2999 53 99.2999C78.0492 99.2999 98.4288 78.9203 98.4288 53.8711C98.4288 28.8219 78.0492 8.44229 53 8.44229Z" fill="#E62828" fill-opacity="0.92"/>
<path d="M71.9301 76.5855C70.9613 76.5855 69.9924 76.2159 69.2533 75.476L31.3965 37.6192C29.9173 36.14 29.9173 33.7446 31.3965 32.2663C32.8748 30.7879 35.271 30.7871 36.7494 32.2663L74.6062 70.1231C76.0853 71.6022 76.0853 73.9976 74.6062 75.476C73.867 76.2159 72.899 76.5855 71.9301 76.5855Z" fill="#E62828" fill-opacity="0.92"/>
<path d="M34.0725 76.5856C33.1037 76.5856 32.1356 76.216 31.3965 75.476C29.9173 73.9977 29.9173 71.6015 31.3965 70.1231L69.2533 32.2663C70.7324 30.7872 73.1278 30.7872 74.6061 32.2663C76.0845 33.7447 76.0853 36.1409 74.6061 37.6192L36.7494 75.476C36.0102 76.216 35.0413 76.5856 34.0725 76.5856Z" fill="#E62828" fill-opacity="0.92"/>
</g>
<defs>
<clipPath id="clip0">
<rect width="106" height="106" fill="white" transform="translate(0 0.871094)"/>
</clipPath>
</defs>
</svg>
