<svg width="106" height="106" viewBox="0 0 106 106" fill="none" xmlns="http://www.w3.org/2000/svg">
<path d="M53 106C23.7754 106 0 82.2246 0 53C0 23.7754 23.7754 0 53 0C82.2246 0 106 23.7754 106 53C106 82.2246 82.2246 106 53 106ZM53 7.5712C27.9508 7.5712 7.5712 27.9508 7.5712 53C7.5712 78.0492 27.9508 98.4288 53 98.4288C78.0492 98.4288 98.4288 78.0492 98.4288 53C98.4288 27.9508 78.0492 7.5712 53 7.5712Z" fill="#112742"/>
<path d="M71.9301 75.7144C70.9613 75.7144 69.9924 75.3448 69.2533 74.6049L31.3965 36.7481C29.9173 35.2689 29.9173 32.8735 31.3965 31.3952C32.8748 29.9169 35.271 29.916 36.7494 31.3952L74.6062 69.252C76.0853 70.7311 76.0853 73.1265 74.6062 74.6049C73.867 75.3448 72.899 75.7144 71.9301 75.7144Z" fill="#112742"/>
<path d="M34.0725 75.7145C33.1037 75.7145 32.1356 75.3449 31.3965 74.6049C29.9173 73.1266 29.9173 70.7304 31.3965 69.252L69.2533 31.3952C70.7324 29.9161 73.1278 29.9161 74.6061 31.3952C76.0845 32.8736 76.0853 35.2698 74.6061 36.7481L36.7494 74.6049C36.0102 75.3449 35.0413 75.7145 34.0725 75.7145Z" fill="#112742"/>
</svg>
